<svg width="578" height="450" viewBox="0 0 578 450" fill="none" xmlns="http://www.w3.org/2000/svg">
<path d="M568.67 268.529L264.643 444.444C258.33 448.084 251.172 450 243.885 450C236.598 450 229.439 448.084 223.127 444.444L9.47552 321.795C6.59549 320.139 4.20309 317.752 2.53952 314.876C0.875942 312 0 308.736 0 305.414C0 302.091 0.875942 298.828 2.53952 295.952C4.20309 293.076 6.59549 290.689 9.47552 289.033L327.309 105.481L568.376 239.448C570.966 240.878 573.129 242.97 574.645 245.509C576.161 248.049 576.976 250.945 577.006 253.903C577.036 256.861 576.28 259.773 574.815 262.343C573.351 264.913 571.23 267.048 568.67 268.529Z" fill="#FF8E31"/>
<path d="M232.918 245.225L148.163 296.278C148.163 296.278 255.87 358.004 297.836 382.933L385.803 333.114" fill="url(#paint0_linear)"/>
<path d="M153.92 302.095L69.1843 353.128C69.1843 353.128 95.4844 370.381 137.353 395.212L227.063 340.125" fill="url(#paint1_linear)"/>
<path d="M167.824 240.545V246.322L170.762 249.925" fill="#ADCEE1"/>
<path d="M284.226 170.007L171.153 240.075C170.118 240.716 169.267 241.615 168.685 242.684C168.103 243.754 167.809 244.956 167.833 246.174C167.856 247.391 168.197 248.581 168.82 249.627C169.444 250.673 170.329 251.538 171.388 252.138L342.975 349.211C345.369 350.566 348.077 351.266 350.827 351.242C353.577 351.218 356.272 350.47 358.642 349.074L471.186 282.903C479.371 276.186 478.745 263.536 471.186 263.007L300.617 169.752C298.118 168.306 295.273 167.566 292.386 167.611C289.5 167.656 286.679 168.484 284.226 170.007Z" fill="#88D3D8"/>
<path d="M284.226 165.209L171.153 235.277C170.118 235.918 169.267 236.817 168.685 237.886C168.103 238.956 167.809 240.158 167.833 241.376C167.856 242.593 168.197 243.783 168.82 244.829C169.444 245.875 170.329 246.741 171.388 247.34L342.975 344.296C345.369 345.65 348.077 346.351 350.827 346.327C353.577 346.303 356.272 345.555 358.642 344.159L471.186 277.988C472.507 277.222 473.604 276.122 474.366 274.799C475.129 273.476 475.53 271.976 475.53 270.448C475.53 268.921 475.129 267.421 474.366 266.098C473.604 264.774 472.507 263.675 471.186 262.909L300.617 164.817C298.106 163.392 295.254 162.675 292.367 162.744C289.48 162.813 286.667 163.665 284.226 165.209Z" fill="white"/>
<path d="M288.828 155.633C288.828 155.633 335.827 4.09901 335.495 4.09901C335.162 4.09901 336.963 -2.63757 345.286 1.16155L525.45 107.223C525.45 107.223 534.184 110.768 532.481 118.973C530.777 127.179 486.578 267.256 486.578 267.256C485.655 268.588 484.332 269.591 482.8 270.12C481.268 270.648 479.607 270.674 478.059 270.194C472.576 268.49 292.96 164.151 292.96 164.151C291.314 163.528 289.969 162.298 289.2 160.714C288.432 159.13 288.299 157.312 288.828 155.633Z" fill="#053855"/>
<path d="M338.471 15.1047L523.002 122.674L484.718 251.159L297.836 146.781L338.471 15.1047Z" fill="#0098ED"/>
<path d="M277.274 181.267L235.934 207.019C235.205 207.478 234.607 208.118 234.198 208.876C233.79 209.635 233.584 210.486 233.602 211.348C233.62 212.209 233.86 213.051 234.3 213.792C234.739 214.533 235.363 215.148 236.11 215.577L384.491 300.156C386.709 301.436 389.225 302.11 391.786 302.11C394.347 302.11 396.863 301.436 399.081 300.156C408.618 294.594 425.048 284.489 435.094 278.419C436.009 277.878 436.765 277.106 437.288 276.181C437.811 275.256 438.082 274.21 438.074 273.148C438.067 272.085 437.78 271.043 437.243 270.126C436.706 269.209 435.938 268.449 435.016 267.922C405.014 250.474 307.099 193.506 285.656 181.091C284.376 180.349 282.918 179.974 281.44 180.005C279.962 180.036 278.521 180.473 277.274 181.267Z" fill="#0098ED"/>
<path d="M279.487 251.159L331.323 280.318C332.117 280.77 332.778 281.423 333.237 282.213C333.696 283.002 333.938 283.899 333.938 284.813C333.938 285.726 333.696 286.623 333.237 287.412C332.778 288.202 332.117 288.855 331.323 289.307L300.93 307.088C299.883 307.695 298.694 308.015 297.484 308.015C296.273 308.015 295.084 307.695 294.037 307.088L240.987 276.93C240.323 276.552 239.772 276.005 239.388 275.345C239.004 274.684 238.802 273.934 238.802 273.17C238.802 272.407 239.004 271.656 239.388 270.996C239.772 270.336 240.323 269.789 240.987 269.41L272.692 251.198C273.724 250.603 274.893 250.287 276.084 250.28C277.275 250.273 278.448 250.576 279.487 251.159Z" fill="#0098ED"/>
<path opacity="0.1" d="M277.274 181.267L235.934 207.019C235.205 207.478 234.607 208.118 234.198 208.876C233.79 209.635 233.584 210.486 233.602 211.348C233.62 212.209 233.86 213.051 234.3 213.792C234.739 214.533 235.363 215.148 236.11 215.577L384.491 300.156C386.709 301.436 389.225 302.11 391.786 302.11C394.347 302.11 396.863 301.436 399.081 300.156C408.618 294.594 425.048 284.489 435.094 278.419C436.009 277.878 436.765 277.106 437.288 276.181C437.811 275.256 438.082 274.21 438.074 273.148C438.067 272.085 437.78 271.043 437.243 270.126C436.706 269.209 435.938 268.449 435.016 267.922C405.014 250.474 307.099 193.506 285.656 181.091C284.376 180.349 282.918 179.974 281.44 180.005C279.962 180.036 278.521 180.473 277.274 181.267Z" fill="#053855"/>
<path opacity="0.1" d="M279.487 251.159L331.323 280.318C332.117 280.77 332.778 281.423 333.237 282.213C333.696 283.002 333.938 283.899 333.938 284.813C333.938 285.726 333.696 286.623 333.237 287.412C332.778 288.202 332.117 288.855 331.323 289.307L300.93 307.088C299.883 307.695 298.694 308.015 297.484 308.015C296.273 308.015 295.084 307.695 294.037 307.088L240.987 276.93C240.323 276.552 239.772 276.005 239.388 275.345C239.004 274.684 238.802 273.934 238.802 273.17C238.802 272.407 239.004 271.656 239.388 270.996C239.772 270.336 240.323 269.789 240.987 269.41L272.692 251.198C273.724 250.603 274.893 250.287 276.084 250.28C277.275 250.273 278.448 250.576 279.487 251.159Z" fill="#053855"/>
<path d="M276.53 78.4755C274.947 77.3254 273.27 76.31 271.517 75.4401C266.366 72.816 264.819 69.9569 266.915 64.5128C271.125 53.5267 255.694 33.0624 243.415 37.9386C235.582 41.0718 229.178 49.8842 226.613 57.7175C225.438 61.0961 225.275 64.7439 226.143 68.214C226.946 71.0927 230.431 74.0889 227.122 76.3801C221.482 80.4534 212.787 82.02 210.75 89.6966C210.448 90.7423 210.366 91.8397 210.511 92.9186C210.656 93.9976 211.024 95.0345 211.592 95.9632C212.417 97.0614 213.461 97.9765 214.658 98.6506C215.854 99.3248 217.178 99.7433 218.544 99.8798C223.342 100.644 221.795 101.251 220.718 105.05C217.702 115.625 228.316 118.758 236.698 119.835C247.136 121.108 260.021 122.244 269.715 117.289C272.633 115.801 275.394 113.373 275.59 109.906C275.786 106.44 270.185 102.915 271.673 99.1748C272.121 98.284 272.797 97.5273 273.632 96.9815C276.51 94.612 280.368 92.6732 281.465 88.8154C282.405 84.2721 279.839 80.943 276.53 78.4755Z" fill="#96D88D"/>
<path d="M276.53 78.4951C274.947 77.345 273.27 76.3296 271.517 75.4597C266.366 72.8356 264.819 69.9764 266.915 64.5324C269.01 59.0883 266.19 51.118 261.294 45.2234C261.635 46.8797 261.688 48.5821 261.451 50.2563C260.374 58.0895 245.53 69.056 252.639 75.4597C257.064 79.3763 275.551 83.2929 265.191 92.3207C261.745 95.3169 256.359 95.6694 258.866 101.642C259.943 104.208 263.057 105.696 264.33 108.222C266.112 111.767 265.936 114.469 262.861 117.211C260.061 119.418 256.632 120.68 253.069 120.814C258.836 120.851 264.538 119.593 269.754 117.132C272.672 115.644 275.433 113.216 275.629 109.75C275.825 106.283 270.224 102.759 271.713 99.0181C272.161 98.1273 272.836 97.3706 273.671 96.8248C276.55 94.4553 280.407 92.5166 281.504 88.6587C282.405 84.2917 279.84 80.9625 276.53 78.4951Z" fill="#7EC971"/>
<path d="M240.321 106.558C235.288 101.76 228.414 100.546 221.717 100.8C221.805 100.956 221.852 101.131 221.854 101.309C221.888 101.464 221.888 101.625 221.854 101.779V101.897C228.238 101.662 234.798 102.739 239.596 107.321C243.209 111.014 245.66 115.684 246.646 120.755H247.86C246.804 115.382 244.181 110.442 240.321 106.558Z" fill="#378729"/>
<path d="M253.637 110.141C252.919 111.16 252.266 112.204 251.679 113.275C251.992 109.358 252.325 105.637 252.756 101.819C253.558 99.117 254.607 96.4949 255.889 93.9853C257.692 90.3895 260.141 87.1565 263.115 84.4483C266.839 81.4471 271.099 79.181 275.668 77.7705C275.324 77.5797 274.991 77.3705 274.669 77.1439L274.356 76.9872C266.523 80.0226 260.139 84.1742 255.752 91.7333C254.86 93.2799 254.069 94.8825 253.383 96.5311C253.716 94.0245 254.068 91.4983 254.479 89.0112C256.438 77.2614 259.649 65.5115 267.071 56.1704C266.92 55.708 266.796 55.2372 266.699 54.7604C259.003 64.1603 255.478 75.9297 253.481 87.7579C252.697 92.3795 252.071 97.0403 251.522 101.721C252.24 80.4403 252.123 59.1536 251.17 37.8602C250.764 37.7303 250.366 37.5799 249.975 37.4098C250.85 56.6404 251.026 75.884 250.504 95.1407C250.244 95.1904 250.013 95.3375 249.858 95.552C249.505 92.4578 249.035 89.3833 248.389 86.3479C245.843 74.2652 240.419 59.0883 228.121 53.8596L227.964 54.1338L227.631 54.9367C240.203 60.3612 245.256 76.341 247.664 88.7175C248.452 93.0541 248.962 97.4366 249.192 101.838C248.852 106.186 248.611 110.533 248.467 114.88C247.437 108.241 245.568 101.76 242.906 95.5911C239.714 88.502 233.525 78.5147 224.987 77.7118C224.174 78.1862 223.322 78.5923 222.441 78.9259C233.036 77.418 240.242 91.4591 243.317 99.6448C245.741 106.487 247.384 113.583 248.213 120.795H248.35C248.158 135.199 249.015 149.598 250.915 163.877C251.072 165.111 253.03 165.131 252.874 163.877C250.973 149.598 250.116 135.199 250.308 120.795H251.131C251.131 119.287 251.307 117.779 251.424 116.271C252.078 114.927 252.803 113.62 253.598 112.354C255.879 108.459 259.054 105.163 262.861 102.739C265.566 101.26 268.497 100.241 271.536 99.7231C271.598 99.2604 271.765 98.8181 272.026 98.4307C268.938 98.9218 265.941 99.8723 263.135 101.251C259.299 103.405 256.04 106.456 253.637 110.141Z" fill="#378729"/>
<path d="M249.469 169.675C258.129 169.422 264.964 162.881 264.736 155.065C264.508 147.249 257.304 141.117 248.644 141.37C239.985 141.622 233.15 148.163 233.377 155.979C233.605 163.795 240.81 169.927 249.469 169.675Z" fill="#FFB339"/>
<path d="M247.018 169.654C236.345 162.722 242.514 146.86 253.794 142.121C252.107 141.641 250.357 141.423 248.604 141.474C239.949 141.729 233.114 148.27 233.33 156.083C233.565 163.153 239.498 168.832 247.018 169.654Z" fill="#FFA522"/>
<path d="M368.218 128.452C387.507 139.32 430.512 164.269 446.824 173.747C448.634 174.801 450.017 176.455 450.733 178.423C451.449 180.391 451.451 182.548 450.741 184.518L450.428 185.38C449.991 186.601 449.291 187.712 448.377 188.633C447.463 189.554 446.358 190.263 445.14 190.709C443.921 191.156 442.62 191.329 441.327 191.217C440.035 191.105 438.783 190.71 437.66 190.06L358.896 144.549C357.009 143.459 355.568 141.736 354.83 139.686C354.092 137.636 354.103 135.39 354.862 133.347C355.331 132.078 356.07 130.927 357.028 129.971C357.986 129.016 359.139 128.28 360.409 127.815C361.679 127.349 363.035 127.165 364.384 127.275C365.732 127.385 367.04 127.786 368.218 128.452Z" fill="white"/>
<path d="M379.569 145.134C379.971 142.833 378.725 140.693 376.786 140.354C374.847 140.015 372.949 141.606 372.547 143.907C372.145 146.209 373.391 148.349 375.33 148.688C377.269 149.026 379.167 147.435 379.569 145.134Z" fill="#33BDD3"/>
<path d="M389.35 150.892C389.752 148.591 388.506 146.451 386.567 146.112C384.628 145.773 382.73 147.364 382.328 149.666C381.926 151.967 383.172 154.107 385.111 154.446C387.05 154.785 388.948 153.194 389.35 150.892Z" fill="#33BDD3"/>
<path d="M399.158 156.674C399.56 154.373 398.314 152.233 396.375 151.894C394.436 151.555 392.538 153.146 392.136 155.447C391.734 157.749 392.98 159.889 394.919 160.228C396.858 160.566 398.756 158.975 399.158 156.674Z" fill="#33BDD3"/>
<path d="M409.409 162.672C409.811 160.371 408.565 158.231 406.626 157.892C404.687 157.553 402.789 159.144 402.387 161.446C401.985 163.747 403.231 165.887 405.17 166.226C407.109 166.565 409.006 164.974 409.409 162.672Z" fill="#33BDD3"/>
<path d="M419.661 168.73C420.063 166.429 418.817 164.289 416.878 163.95C414.939 163.611 413.041 165.202 412.639 167.503C412.237 169.805 413.483 171.945 415.422 172.284C417.361 172.622 419.259 171.031 419.661 168.73Z" fill="#33BDD3"/>
<path d="M429.848 174.59C430.25 172.289 429.004 170.149 427.065 169.81C425.126 169.471 423.228 171.062 422.826 173.363C422.424 175.665 423.67 177.805 425.609 178.144C427.548 178.482 429.446 176.891 429.848 174.59Z" fill="#33BDD3"/>
<path d="M433.16 113.663C435.057 102.807 428.407 92.5752 418.307 90.8106C408.207 89.0461 398.481 96.4165 396.585 107.273C394.688 118.129 401.338 128.361 411.438 130.125C421.538 131.89 431.263 124.52 433.16 113.663Z" fill="white"/>
<path d="M421.777 109.319C422.968 105.238 421.045 101.089 417.484 100.05C413.923 99.0111 410.071 101.477 408.881 105.557C407.691 109.638 409.613 113.788 413.174 114.826C416.736 115.865 420.587 113.399 421.777 109.319Z" fill="#33BDD3"/>
<path d="M397.475 117.994C397.475 117.994 403.8 111.003 412.456 113.784C415.565 114.752 418.184 116.876 419.772 119.718C421.361 122.56 421.798 125.903 420.994 129.059C420.994 129.059 414.081 133.543 404.818 127.472C404.818 127.492 398.63 123.536 397.475 117.994Z" fill="#33BDD3"/>
<path d="M352.767 150.032C354.762 149.694 356.727 149.197 358.642 148.544C360.757 147.702 353.198 146.253 353.198 146.253" fill="#1CA9B7"/>
<path d="M333.928 96.6878C336.347 95.4432 339.043 94.8366 341.761 94.9253C345.443 95.317 341.291 102.759 341.291 102.759" fill="#1CA9B7"/>
<path d="M344.288 95.7478L368.571 110.239C369.715 110.928 370.591 111.986 371.054 113.239C371.517 114.492 371.539 115.865 371.116 117.132L362.128 144.157C360.933 147.721 358.211 150.032 354.999 148.074L328.934 134.189C327.806 133.501 326.942 132.451 326.484 131.211C326.025 129.971 325.999 128.612 326.408 127.355L335.71 98.979C335.983 98.1427 336.441 97.3784 337.049 96.7426C337.657 96.1067 338.4 95.6156 339.224 95.3055C340.047 94.9953 340.929 94.874 341.806 94.9506C342.682 95.0271 343.53 95.2996 344.288 95.7478Z" fill="#1CA9B7"/>
<path d="M339.294 97.0207L363.577 111.512C364.725 112.198 365.605 113.254 366.072 114.508C366.538 115.761 366.563 117.136 366.142 118.405L357.154 145.43C355.959 148.994 353.237 151.305 350.025 149.347L323.96 135.462C322.832 134.774 321.968 133.724 321.51 132.484C321.051 131.244 321.025 129.885 321.434 128.628L330.736 100.252C331.01 99.4184 331.467 98.6568 332.074 98.0231C332.68 97.3893 333.421 96.8995 334.242 96.5896C335.063 96.2797 335.943 96.1576 336.817 96.2322C337.691 96.3067 338.537 96.5762 339.294 97.0207Z" fill="#33BDD3"/>
<path d="M344.934 98.2544C344.934 98.2544 348.85 82.588 358.838 84.9967C368.825 87.4054 360.796 107.498 360.796 107.498C360.796 107.498 360.796 109.456 365.359 110.181C365.359 110.181 375.15 86.6808 361.912 80.473C348.674 74.2652 341.135 92.6341 340.371 95.9828C340.807 96.7837 341.478 97.4312 342.294 97.8375C343.111 98.2439 344.032 98.3894 344.934 98.2544Z" fill="#EBEDED"/>
<path d="M345.369 122.914C348.881 122.418 351.287 118.899 350.744 115.055C350.2 111.211 346.913 108.498 343.401 108.994C339.889 109.491 337.482 113.01 338.026 116.854C338.569 120.698 341.857 123.411 345.369 122.914Z" fill="#EBEDED"/>
<path d="M345.906 113.482L344.722 113.071C343.455 112.631 342.072 113.301 341.632 114.568L335.837 131.255C335.397 132.522 336.068 133.905 337.334 134.345L338.518 134.756C339.785 135.196 341.169 134.526 341.609 133.259L347.403 116.573C347.843 115.306 347.173 113.922 345.906 113.482Z" fill="#EBEDED"/>
<path d="M215.94 325.222L213.844 323.636L215.705 298.785L226.632 299.177C226.632 299.177 226.084 309.791 228.414 312.395C230.745 315 237.325 313.727 237.932 313.982C238.539 314.236 242.925 313.296 244.707 315.431C246.489 317.565 237.599 322.657 232.958 323.381C229.834 323.785 226.667 323.679 223.577 323.068C223.577 323.068 223.068 316.645 221.462 317.193C219.856 317.741 219.249 324.419 219.249 324.419L215.94 325.222Z" fill="#9C4100"/>
<path d="M211.455 247.007C210.555 272.994 209.595 306.853 209.595 306.853C209.595 306.853 215.47 314.922 231.626 311.475C233.349 311.103 237.188 269.685 239.068 248.143C230.067 245.685 220.627 245.297 211.455 247.007Z" fill="#7EC971"/>
<path d="M244.433 346.568L242.338 344.982L244.198 320.131L255.126 320.522C255.126 320.522 254.577 331.136 256.908 333.741C259.238 336.345 265.818 335.072 266.425 335.327C267.032 335.582 271.419 334.642 273.201 336.776C274.983 338.911 266.092 344.002 261.451 344.727C258.328 345.13 255.16 345.025 252.071 344.414C252.071 344.414 251.562 337.99 249.956 338.539C248.35 339.087 247.743 345.765 247.743 345.765L244.433 346.568Z" fill="#053855"/>
<path d="M249.133 251.727C241.948 248.47 234.231 246.546 226.358 246.048C227.69 255.839 228.923 262.517 229.139 263.007C229.668 264.241 239.675 325.986 239.675 325.986C251.424 330.745 265.446 326.769 265.446 326.769C265.446 326.769 260.628 278.595 260.237 270.546C260.237 269.685 260.191 268.816 260.1 267.942C259.922 264.496 258.807 261.165 256.874 258.307C254.941 255.45 252.265 253.174 249.133 251.727Z" fill="#7EC971"/>
<path d="M176.519 266.081C176.519 266.081 196.533 247.967 211.455 247.007C226.378 246.048 247.586 261.518 245.922 270.507C244.257 279.496 215.685 298.805 215.685 298.805" fill="#7EC971"/>
<path d="M217.448 233.75L201.507 222.47C200.866 222.017 200.403 221.355 200.196 220.598C199.988 219.84 200.051 219.035 200.372 218.318L211.671 193.193C211.869 192.753 212.159 192.36 212.521 192.041C212.884 191.722 213.31 191.484 213.772 191.343C214.233 191.202 214.72 191.161 215.199 191.224C215.677 191.286 216.137 191.45 216.547 191.705L234.368 202.808C235.094 203.26 235.622 203.968 235.847 204.793C236.072 205.617 235.978 206.496 235.582 207.254L222.403 232.536C222.18 232.964 221.869 233.341 221.489 233.64C221.109 233.938 220.67 234.152 220.201 234.267C219.732 234.382 219.243 234.396 218.769 234.306C218.294 234.217 217.843 234.027 217.448 233.75Z" fill="#1784AA"/>
<path d="M216.018 232.868L200.019 221.589C199.378 221.135 198.914 220.474 198.707 219.716C198.5 218.959 198.562 218.153 198.883 217.437L210.183 192.312C210.381 191.872 210.671 191.479 211.033 191.16C211.395 190.841 211.821 190.603 212.283 190.462C212.745 190.321 213.231 190.28 213.71 190.343C214.189 190.405 214.649 190.569 215.059 190.824L232.879 201.927C233.605 202.378 234.133 203.087 234.359 203.912C234.584 204.736 234.489 205.615 234.093 206.373L220.914 231.654C220.691 232.075 220.382 232.443 220.007 232.736C219.632 233.029 219.199 233.24 218.737 233.354C218.275 233.469 217.794 233.485 217.326 233.401C216.858 233.317 216.412 233.136 216.018 232.868Z" fill="#29ABE2"/>
<path d="M218.682 231.321L200.744 218.651L212.513 192.488L232.449 204.904L218.682 231.321Z" fill="#E4F5FD"/>
<path d="M210.378 203.592C204.503 206.843 195.162 210.544 188.837 214.852C187.838 215.537 186.35 217.927 187.329 217.574C186.898 218.064 190.991 219.669 190.599 220.198C190.482 220.374 193.243 218.847 193.4 218.906C195.749 220.154 198.479 220.483 201.057 219.826L202.095 219.062L202.349 218.906C202.393 218.828 202.453 218.761 202.525 218.71L202.682 218.592C202.711 218.443 202.795 218.311 202.917 218.22C204.288 217.143 207.304 216.575 207.617 214.754C207.563 214.274 207.417 213.808 207.186 213.383C207.114 213.272 207.086 213.138 207.108 213.008C207.129 212.877 207.199 212.76 207.304 212.678C207.418 212.136 207.424 211.576 207.32 211.031C207.215 210.486 207.004 209.968 206.697 209.506L207.049 209.095C208.717 207.936 210.295 206.653 211.769 205.256C211.93 205.107 212.034 204.906 212.062 204.688V204.59C212.068 204.532 212.068 204.473 212.062 204.414C212.04 204.229 211.972 204.053 211.864 203.901C211.756 203.749 211.611 203.627 211.444 203.545C211.277 203.463 211.091 203.425 210.905 203.433C210.719 203.441 210.538 203.496 210.378 203.592Z" fill="#E85454"/>
<path d="M207.362 210.015C206.912 208.879 206.266 208.82 205.228 209.271C203.167 210.205 201.2 211.333 199.353 212.639C199.04 212.855 199.353 213.344 199.666 213.148C200.822 212.365 205.835 208.664 206.853 210.289C207.872 211.915 204.503 213.031 203.563 213.52L199.96 215.479C199.627 215.655 199.96 216.164 200.273 215.988L202.584 214.793C202.566 214.851 202.566 214.912 202.584 214.97C202.78 215.229 203.01 215.459 203.27 215.655C203.063 215.951 202.931 216.293 202.887 216.651C202.842 217.01 202.886 217.374 203.015 217.711L203.113 217.829C202.12 218.862 200.81 219.536 199.391 219.741C197.972 219.947 196.526 219.674 195.28 218.964C194.986 218.749 194.575 219.16 194.868 219.395C197.218 221.158 202.075 220.649 203.72 218.044C204.089 217.995 204.447 217.883 204.777 217.711C205.845 217.341 206.807 216.716 207.578 215.89C207.79 215.531 207.901 215.122 207.901 214.705C207.901 214.288 207.79 213.879 207.578 213.52V213.422C207.72 213.285 207.833 213.121 207.91 212.939C207.987 212.758 208.027 212.562 208.027 212.365C208.027 212.168 207.987 211.972 207.91 211.79C207.833 211.609 207.72 211.444 207.578 211.307C207.637 210.865 207.562 210.415 207.362 210.015ZM207.108 215.342C206.718 215.882 206.19 216.307 205.58 216.575C205.208 216.791 204.268 217.457 203.896 217.359C203.132 217.163 203.602 216.164 203.896 215.733C204.316 215.569 204.706 215.338 205.052 215.048L206.481 214.147L206.951 213.795C207.09 214.025 207.176 214.283 207.203 214.55C207.23 214.818 207.198 215.088 207.108 215.342ZM205.267 214.245C204.445 214.754 203.779 215.4 203.015 214.48C204.17 213.892 205.326 213.305 206.403 212.62C206.734 212.427 207.021 212.166 207.245 211.856C207.852 212.894 205.894 213.853 205.267 214.245Z" fill="#653200"/>
<path d="M192.636 210.367C192.636 210.367 196.553 211.268 196.944 219.669L193.948 227.131L177.635 218.671C177.635 218.671 181.533 213.775 192.636 210.367Z" fill="#88D3D8"/>
<path d="M231.352 214.304C230.138 216.987 228.924 219.415 227.905 222.137C227.161 220.316 226.476 218.827 225.555 217.084C225.515 217.022 225.469 216.963 225.418 216.908C225.252 216.638 224.999 216.432 224.701 216.324C224.403 216.215 224.077 216.211 223.776 216.31C223.474 216.41 223.216 216.608 223.041 216.873C222.867 217.138 222.786 217.454 222.814 217.77C223.115 219.437 223.784 221.016 224.772 222.391C224.634 222.462 224.508 222.555 224.4 222.666C222.05 225.27 222.618 229.265 222.892 232.457C222.903 232.669 222.968 232.875 223.082 233.054C223.195 233.234 223.353 233.381 223.54 233.481C223.728 233.582 223.937 233.632 224.15 233.628C224.362 233.623 224.57 233.564 224.752 233.456C224.971 233.459 225.187 233.405 225.379 233.299C227.49 231.846 229.001 229.674 229.628 227.189C230.941 223.136 232.664 218.632 231.352 214.304Z" fill="#E85454"/>
<path d="M170.409 214.088L176.284 212.326C177.753 212.541 190.501 217.75 195.867 226.837C196.508 229.607 196.94 232.422 197.16 235.258C197.649 239.037 198.041 242.836 198.217 246.635C198.463 250.779 198.398 254.936 198.021 259.071C197.845 260.833 197.728 261.734 197.414 263.477C196.73 264.07 195.948 264.541 195.103 264.867C177.479 270.997 164.436 261.068 163.908 259.619C163.379 258.17 162.537 237.803 162.106 225.662C162.032 223.09 162.804 220.564 164.304 218.473C165.804 216.383 167.949 214.842 170.409 214.088Z" fill="#88D3D8"/>
<path d="M186.017 193.076C186.017 193.076 189.934 213.05 182.629 215.205C175.325 217.359 166.61 209.036 165.984 204.923C165.357 200.811 175.697 186.417 186.017 193.076Z" fill="#E85454"/>
<path d="M183.158 201.066C183.373 200.733 187.623 199.616 188.504 196.052C189.385 192.488 186.174 187.808 178.81 187.142C171.447 186.476 159.09 190.491 160.99 209.878C162.889 229.265 182.394 220.923 183.667 214.735C184.343 210.186 184.171 205.551 183.158 201.066Z" fill="#653200"/>
<path d="M183.158 201.066C183.158 201.066 184.392 207.685 187.075 210.544C189.757 213.403 191.931 218.573 188.641 222.529C185.351 226.484 188.641 228.619 193.282 232.32C197.924 236.021 195.064 251.472 178.282 247.693C161.499 243.913 153.588 233.789 153.588 233.789C153.588 233.789 157.896 203.592 162.478 196.581" fill="#653200"/>
<path d="M195.867 227.131C195.867 227.131 199.666 239.86 203.466 240.251C207.265 240.643 213.022 235.023 217.076 227.679C218.527 227.528 219.994 227.676 221.385 228.115C222.776 228.554 224.063 229.274 225.164 230.231C226.266 231.187 227.159 232.36 227.789 233.676C228.419 234.992 228.772 236.424 228.826 237.882C228.826 237.882 215.45 264.985 195.946 258.366" fill="#88D3D8"/>
<path d="M222.875 213.636C224.445 209.605 222.909 205.242 219.442 203.891C215.975 202.54 211.892 204.713 210.321 208.744C208.75 212.775 210.287 217.138 213.754 218.489C217.22 219.839 221.304 217.667 222.875 213.636Z" fill="#1784AA"/>
<path d="M212.043 209.173L214.138 208.527L215.02 211.503L221.874 209.055L222.187 211.151L213.845 214.206L212.043 209.173Z" fill="#E4F5FD"/>
<path d="M125.819 324.204C113.834 309.262 108.331 290.129 108.566 270.997C108.729 255.483 114.825 240.621 125.603 229.461C135.493 219.317 150.415 214.323 163.653 221.197C174.639 226.896 179.966 237.843 183.785 249.064C188.367 262.498 189.914 279.711 206.285 283.863C212.63 285.469 219.308 284.372 225.869 283.863C237.266 283.079 249.368 286.781 252.815 298.922C259.16 320.659 229.922 339.224 213.492 346.235C199.263 352.086 183.593 353.477 168.556 350.225C153.519 346.973 139.824 339.23 129.285 328.023C128.045 326.808 126.889 325.536 125.819 324.204Z" fill="#FFDE47"/>
<path d="M252.149 299.255C240.517 320.287 202.662 329.765 182.022 328.63C163.281 327.67 151.433 316.234 152.647 297.297C153.352 286.879 156.564 276.5 155.722 265.964C154.136 248.104 137.177 233.436 119.865 236.922C112.448 247.189 108.404 259.506 108.292 272.172C108.057 291.304 113.54 310.417 125.544 325.379C126.615 326.684 127.731 327.99 128.893 329.295C139.432 340.503 153.127 348.246 168.164 351.498C183.201 354.75 198.872 353.359 213.1 347.508C229.55 340.497 258.768 321.932 252.423 300.195C252.384 299.862 252.247 299.568 252.149 299.255Z" fill="#FCC62D"/>
<path d="M78.741 66.5299L80.2293 148.602C80.2479 149.472 80.4856 150.323 80.9206 151.077C81.3556 151.83 81.9737 152.462 82.7177 152.913C83.4617 153.364 84.3075 153.62 85.1768 153.657C86.046 153.695 86.9106 153.512 87.6905 153.126L157.426 118.386C158.582 117.808 159.551 116.915 160.22 115.809C160.889 114.704 161.23 113.431 161.205 112.139L159.717 30.027C159.71 29.0763 159.46 28.1432 158.991 27.3162C158.522 26.4892 157.85 25.7956 157.038 25.3013C156.226 24.807 155.301 24.5283 154.351 24.4917C153.401 24.4551 152.457 24.6617 151.61 25.0921L82.5205 60.3416C81.3735 60.9147 80.4108 61.7989 79.7424 62.8932C79.0741 63.9874 78.7271 65.2477 78.741 66.5299Z" fill="#0098ED"/>
<path opacity="0.3" d="M149.103 78.9651C135.825 82.725 140.427 97.5494 130.891 105.383C119.278 114.92 114.891 87.7579 100.635 89.5595C83.5387 91.5178 80.2291 148.7 80.2291 148.7C82.9316 155.182 87.6903 153.224 87.6903 153.224L161.303 116.545L160.735 84.9575C157.641 81.2759 153.822 78.4951 149.103 78.9651Z" fill="#053855"/>
<defs>
<linearGradient id="paint0_linear" x1="248.252" y1="344.512" x2="285.264" y2="285.586" gradientUnits="userSpaceOnUse">
<stop stop-color="#FF8E31"/>
<stop offset="1" stop-color="#ED6B21"/>
</linearGradient>
<linearGradient id="paint1_linear" x1="17892.1" y1="21958.4" x2="19579.9" y2="18779.8" gradientUnits="userSpaceOnUse">
<stop stop-color="#FF8E31"/>
<stop offset="1" stop-color="#ED6B21"/>
</linearGradient>
</defs>
</svg>
