<svg width="150" height="128" viewBox="0 0 150 128" fill="none" xmlns="http://www.w3.org/2000/svg">
<path opacity="0.18" d="M123.272 101.444C118.096 107.179 112.596 112.604 106.071 116.693C92.8231 124.998 76.6009 127.032 60.9581 127.296C37.0345 127.694 13.7787 121.092 4.08139 97.2318C0.877218 89.3395 -0.3451 80.7104 0.0823578 72.2047C0.456825 64.8023 2.10307 57.3787 5.7347 50.9245C6.87808 48.9135 8.17737 46.9947 9.62068 45.1859V90.6825C9.62068 92.0972 9.90024 93.498 10.4434 94.8049C10.9865 96.1117 11.7825 97.2988 12.7859 98.2984C13.7893 99.2979 14.9803 100.09 16.2909 100.63C17.6015 101.17 19.0059 101.446 20.4237 101.444H123.272Z" fill="#0098ED"/>
<path opacity="0.18" d="M111.582 5.74871H58.0753C61.8591 4.08114 65.808 2.81462 69.8569 1.96996C75.0217 0.912473 80.3102 0.609327 85.5775 0.320281C92.385 -0.0604145 99.4822 -0.38471 105.746 2.29425C107.818 3.21835 109.776 4.37747 111.582 5.74871Z" fill="#0098ED"/>
<path opacity="0.46" d="M150 16.6196V90.7952C150 93.6467 148.866 96.3814 146.846 98.3987C144.826 100.416 142.086 101.551 139.229 101.553H20.4237C17.5644 101.552 14.8226 100.419 12.8008 98.4014C10.779 96.384 9.64278 93.6482 9.64185 90.7952V16.6196C9.64278 13.7667 10.779 11.0308 12.8008 9.0135C14.8226 6.99616 17.5644 5.86242 20.4237 5.86148H139.229C142.086 5.86428 144.826 6.99897 146.846 9.01621C148.866 11.0335 150 13.7682 150 16.6196Z" fill="#0098ED"/>
<path d="M38.822 70.8335L42.9871 62.1092L52.5996 67.7174L45.9828 81.3413L40.8215 78.4756L38.822 70.8335Z" fill="#0098ED"/>
<path d="M39.6134 69.9593L43.1108 63.1914L51.0205 67.802L45.0255 79.8045L40.9452 76.6885L39.6134 69.9593Z" fill="white"/>
<path d="M39.3342 91.4192L42.1109 108.476L39.3342 125.534L40.8886 126.75L38.338 126.641L38.557 109.016L33.7843 96.6114L31.5658 126.073L32.7881 126.736L30.0114 126.626L28.457 98.7158C28.457 98.7158 27.1252 91.6342 29.0081 90.4216C30.891 89.209 39.3342 91.4192 39.3342 91.4192Z" fill="#3E3E54"/>
<path d="M76.8198 76.0856L51.19 50.5121L28.1496 68.9547L19.8407 68.5704L51.19 42.6902L76.8198 68.2638L100.069 44.2976L119.463 56.4446L135.495 40.4484L139.412 44.3575L120.043 63.5544L100.849 51.5661L76.8198 76.0856Z" fill="#0098ED"/>
<path d="M24.3627 74.4324C27.617 74.4324 30.2552 71.8 30.2552 68.5528C30.2552 65.3056 27.617 62.6732 24.3627 62.6732C21.1083 62.6732 18.4701 65.3056 18.4701 68.5528C18.4701 71.8 21.1083 74.4324 24.3627 74.4324Z" fill="#0098ED"/>
<path d="M24.2743 72.5889C26.5219 72.5889 28.344 70.7708 28.344 68.5281C28.344 66.2854 26.5219 64.4673 24.2743 64.4673C22.0266 64.4673 20.2046 66.2854 20.2046 68.5281C20.2046 70.7708 22.0266 72.5889 24.2743 72.5889Z" fill="white"/>
<path d="M76.9471 78.2358C80.2015 78.2358 82.8397 75.6034 82.8397 72.3562C82.8397 69.109 80.2015 66.4766 76.9471 66.4766C73.6928 66.4766 71.0546 69.109 71.0546 72.3562C71.0546 75.6034 73.6928 78.2358 76.9471 78.2358Z" fill="#0098ED"/>
<path d="M76.8587 76.3923C79.1064 76.3923 80.9284 74.5742 80.9284 72.3316C80.9284 70.0889 79.1064 68.2708 76.8587 68.2708C74.6111 68.2708 72.7891 70.0889 72.7891 72.3316C72.7891 74.5742 74.6111 76.3923 76.8587 76.3923Z" fill="white"/>
<path d="M100.613 53.8467C103.867 53.8467 106.505 51.2143 106.505 47.9671C106.505 44.7199 103.867 42.0875 100.613 42.0875C97.3583 42.0875 94.7201 44.7199 94.7201 47.9671C94.7201 51.2143 97.3583 53.8467 100.613 53.8467Z" fill="#0098ED"/>
<path d="M100.521 52.0032C102.769 52.0032 104.591 50.1851 104.591 47.9424C104.591 45.6997 102.769 43.8817 100.521 43.8817C98.2734 43.8817 96.4513 45.6997 96.4513 47.9424C96.4513 50.1851 98.2734 52.0032 100.521 52.0032Z" fill="white"/>
<path d="M51.8436 52.4332C55.098 52.4332 57.7362 49.8008 57.7362 46.5536C57.7362 43.3063 55.098 40.674 51.8436 40.674C48.5892 40.674 45.951 43.3063 45.951 46.5536C45.951 49.8008 48.5892 52.4332 51.8436 52.4332Z" fill="#0098ED"/>
<path d="M51.7554 50.5862C54.003 50.5862 55.825 48.7681 55.825 46.5254C55.825 44.2827 54.003 42.4647 51.7554 42.4647C49.5077 42.4647 47.6857 44.2827 47.6857 46.5254C47.6857 48.7681 49.5077 50.5862 51.7554 50.5862Z" fill="white"/>
<path d="M141.115 55.4434L135.573 55.3765L135.728 42.9122L122.883 43.7864L122.509 38.2699L141.345 36.9868L141.115 55.4434Z" fill="#0098ED"/>
<path d="M23.7514 39.9407H21.3527V48.6156H23.7514V39.9407Z" fill="#0098ED"/>
<path d="M26.673 42.2496H24.2743V48.6121H26.673V42.2496Z" fill="#0098ED"/>
<path d="M29.7819 44.2342H27.3832V48.6157H29.7819V44.2342Z" fill="#0098ED"/>
<path d="M98.3411 76.343H95.9424V80.6787H98.3411V76.343Z" fill="#0098ED"/>
<path d="M101.263 74.3161H98.864V80.6787H101.263V74.3161Z" fill="#0098ED"/>
<path d="M104.375 71.0978H101.976V80.6786H104.375V71.0978Z" fill="#0098ED"/>
<path opacity="0.18" d="M71.4644 30.9662C70.8532 29.2989 70.7225 27.2474 71.8883 25.9079C72.3935 25.3606 73.0308 24.9516 73.7394 24.72C74.6374 24.3926 75.6021 24.2896 76.5492 24.4199C77.4963 24.5501 78.397 24.9097 79.1727 25.4673C79.9284 26.0443 80.4983 26.8294 80.8122 27.7257C81.126 28.6221 81.1702 29.5904 80.9391 30.5115C80.5399 31.9215 79.4518 33.0777 79.2081 34.5158C79.1021 35.1362 79.1445 35.8271 78.7594 36.3206C78.2931 36.9199 75.7637 36.8917 75.0006 36.8846C71.6233 36.8564 72.4782 33.7403 71.4644 30.9662Z" fill="#0098ED"/>
<path opacity="0.18" d="M71.4644 30.9662C70.8532 29.2989 70.7225 27.2474 71.8883 25.9079C72.3935 25.3606 73.0308 24.9516 73.7394 24.72C74.6374 24.3926 75.6021 24.2896 76.5492 24.4199C77.4963 24.5501 78.397 24.9097 79.1727 25.4673C79.9284 26.0443 80.4983 26.8294 80.8122 27.7257C81.126 28.6221 81.1702 29.5904 80.9391 30.5115C80.5399 31.9215 79.4518 33.0777 79.2081 34.5158C79.1021 35.1362 79.1445 35.8271 78.7594 36.3206C78.2931 36.9199 75.7637 36.8917 75.0006 36.8846C71.6233 36.8564 72.4782 33.7403 71.4644 30.9662Z" fill="#0098ED"/>
<path opacity="0.18" d="M71.4644 30.9662C70.8532 29.2989 70.7225 27.2474 71.8883 25.9079C72.3935 25.3606 73.0308 24.9516 73.7394 24.72C74.6374 24.3926 75.6021 24.2896 76.5492 24.4199C77.4963 24.5501 78.397 24.9097 79.1727 25.4673C79.9284 26.0443 80.4983 26.8294 80.8122 27.7257C81.126 28.6221 81.1702 29.5904 80.9391 30.5115C80.5399 31.9215 79.4518 33.0777 79.2081 34.5158C79.1021 35.1362 79.1445 35.8271 78.7594 36.3206C78.2931 36.9199 75.7637 36.8917 75.0006 36.8846C71.6233 36.8564 72.4782 33.7403 71.4644 30.9662Z" fill="#0098ED"/>
<path opacity="0.18" d="M71.4644 30.9662C70.8532 29.2989 70.7225 27.2474 71.8883 25.9079C72.3935 25.3606 73.0308 24.9516 73.7394 24.72C74.6374 24.3926 75.6021 24.2896 76.5492 24.4199C77.4963 24.5501 78.397 24.9097 79.1727 25.4673C79.9284 26.0443 80.4983 26.8294 80.8122 27.7257C81.126 28.6221 81.1702 29.5904 80.9391 30.5115C80.5399 31.9215 79.4518 33.0777 79.2081 34.5158C79.1021 35.1362 79.1445 35.8271 78.7594 36.3206C78.2931 36.9199 75.7637 36.8917 75.0006 36.8846C71.6233 36.8564 72.4782 33.7403 71.4644 30.9662Z" fill="#0098ED"/>
<path d="M72.6232 38.714C72.6754 38.8174 72.7123 38.9279 72.7327 39.0419C72.7259 39.1743 72.7106 39.3062 72.6867 39.4367C72.6837 39.5802 72.7164 39.7223 72.7817 39.8502C72.847 39.9781 72.943 40.0879 73.0612 40.1699C73.2976 40.3314 73.5664 40.4396 73.849 40.4871C75.1795 40.7827 76.5705 40.6354 77.8092 40.0676C78.0353 39.9619 78.279 39.8138 78.3214 39.5706C78.3214 39.479 78.3214 39.3873 78.3214 39.3027C78.3596 39.1867 78.4156 39.0773 78.4875 38.9784C78.5972 38.7826 78.6439 38.5577 78.6212 38.3345C78.5984 38.1112 78.5073 37.9004 78.3603 37.7306C78.4797 37.6434 78.5625 37.5151 78.5925 37.3705C78.6226 37.2259 78.5977 37.0754 78.5228 36.948C78.442 36.8239 78.3351 36.7189 78.2093 36.6403C78.0836 36.5618 77.9422 36.5116 77.795 36.4933C77.5007 36.4562 77.2027 36.4562 76.9083 36.4933C75.898 36.5814 74.2729 36.0774 73.3474 36.4405C72.8139 36.6731 72.3971 38.1007 72.6232 38.714Z" fill="#3E3E54"/>
<path d="M74.5802 37.2653C73.8737 36.6273 73.6652 35.5945 73.591 34.6392C73.541 33.9954 73.5245 33.3495 73.5416 32.704C73.5247 32.5738 73.54 32.4415 73.5862 32.3186C73.6324 32.1957 73.708 32.086 73.8065 31.999C73.9214 31.9387 74.053 31.9177 74.181 31.9391C74.3829 31.975 74.5736 32.0574 74.738 32.1798C74.9024 32.3022 75.0358 32.4612 75.1278 32.6441C75.3107 33.0097 75.4063 33.4127 75.4068 33.8214C75.4068 34.1246 75.3468 34.5264 75.0536 34.5863C75.0323 34.5937 75.0095 34.5957 74.9873 34.592C74.9651 34.5883 74.9441 34.5791 74.9264 34.5652C74.9004 34.5394 74.8831 34.5061 74.8769 34.47C74.8149 33.897 74.923 33.3184 75.1878 32.8062C75.3044 32.5172 75.474 32.1858 75.7813 32.1435C75.8587 32.1368 75.9367 32.1455 76.0106 32.1691C76.0846 32.1927 76.1532 32.2308 76.2123 32.281C76.3542 32.4098 76.4611 32.5725 76.5229 32.7537C76.5847 32.935 76.5994 33.1289 76.5656 33.3174C76.4917 33.6899 76.3555 34.0474 76.1628 34.3748L76.0604 34.5687C75.9798 34.1656 75.9899 33.7497 76.0901 33.351C76.1903 32.9523 76.3781 32.5808 76.6398 32.2634C76.7021 32.1781 76.7863 32.1112 76.8835 32.0695C77.1061 31.9884 77.3463 32.1682 77.4735 32.3691C77.7268 32.8314 77.8141 33.3663 77.7208 33.8849C77.5941 35.1011 77.1332 36.2587 76.3889 37.2301" stroke="white" stroke-width="0.84" stroke-miterlimit="10"/>
<path d="M29.2343 65.8351C29.2343 65.8351 35.9465 66.5824 37.6139 67.802C39.2814 69.0216 41.0018 70.9286 41.0018 72.4796C41.0018 74.0306 41.6659 81.6727 41.6659 81.6727L44.4427 75.2502L45.997 76.135C45.997 76.135 44.2307 87.2668 43.2203 87.5982C42.21 87.9295 39.5039 87.2104 39.5039 87.2104L39.3344 91.4192C39.3344 91.4192 30.2341 92.3075 29.0082 90.4216C27.7824 88.5358 24.9209 68.9088 29.2343 65.8351Z" fill="#0098ED"/>
<path d="M35.0139 63.7307C35.0139 63.7307 34.2013 65.4367 34.6359 66.8326C34.6359 66.8326 32.1382 66.4801 32.0641 66.2052C31.9899 65.9302 32.3785 63.2971 32.0888 62.4934C31.7991 61.6897 35.0139 63.7307 35.0139 63.7307Z" fill="#EEA886"/>
<path d="M32.3219 56.7795C33.3005 56.36 35.9924 55.7713 36.9886 59.7792C37.9848 63.7871 36.4728 63.981 34.9043 64.0092C33.3358 64.0374 30.7004 61.4853 30.4531 60.6675C30.2058 59.8497 29.524 57.9815 32.3219 56.7795Z" fill="#EEA886"/>
<path d="M33.0355 56.4939C33.0355 56.4939 28.7963 56.5327 30.5132 62.6873C31.6189 66.6564 29.4746 70.421 29.7289 71.1472C29.9833 71.8733 32.2018 72.5959 33.4065 71.1472C34.6111 69.6984 32.5021 64.9468 33.5478 62.7648C34.5935 60.5829 36.8756 59.113 36.8756 59.113C36.8756 59.113 36.1231 55.9758 33.0355 56.4939Z" fill="#FCCCA2"/>
<path d="M30.5024 58.1471C30.5024 58.1471 29.4886 60.0047 30.4389 63.4733C30.7674 64.6824 27.6445 69.9839 29.9973 71.4855C32.3501 72.9872 34.127 60.1704 30.5024 58.1471Z" fill="#FCCCA2"/>
<path d="M44.5839 73.3925C44.5807 73.2831 44.5938 73.1738 44.6228 73.0682C44.7217 72.7721 45.0361 72.61 45.1986 72.3456C45.2869 72.1792 45.3421 71.9972 45.3611 71.8098C45.3755 71.6424 45.4198 71.4788 45.4918 71.3269C45.5306 71.252 45.5902 71.1898 45.6635 71.1479C45.7369 71.106 45.8208 71.0861 45.9052 71.0907C46.1313 71.1225 46.2584 71.3692 46.315 71.5878C46.7104 72.9101 46.6544 74.3261 46.156 75.6133C46.0818 75.8036 45.9476 76.0222 45.7462 76.0081C45.6775 75.9973 45.6115 75.9734 45.5519 75.9376C45.1456 75.719 44.5698 75.5428 44.5486 75.0598C44.5274 74.5064 44.5733 73.9424 44.5839 73.3925Z" fill="#EEA886"/>
<path d="M140.511 87.6546H54.2634C53.2528 87.6546 52.4335 88.4721 52.4335 89.4805V89.484C52.4335 90.4925 53.2528 91.31 54.2634 91.31H140.511C141.522 91.31 142.341 90.4925 142.341 89.484V89.4805C142.341 88.4721 141.522 87.6546 140.511 87.6546Z" fill="#0098ED"/>
<path d="M45.5234 71.9826L43.637 70.2201L43.4709 70.5514L45.1984 72.3562C45.1984 72.3562 45.5517 72.2469 45.5234 71.9826Z" fill="#0098ED"/>
<path d="M39.5039 87.2104C39.5039 87.2104 38.5324 86.8226 38.1968 83.9992C37.8612 81.1757 37.4479 78.2676 37.4479 78.2676V91.532H39.6699L39.5039 87.2104Z" fill="url(#paint0_linear)"/>
<defs>
<linearGradient id="paint0_linear" x1="44.8171" y1="79.4696" x2="26.3689" y2="95.5412" gradientUnits="userSpaceOnUse">
<stop stop-opacity="0"/>
<stop offset="0.99"/>
</linearGradient>
</defs>
</svg>
