<svg width="142" height="128" viewBox="0 0 142 128" fill="none" xmlns="http://www.w3.org/2000/svg">
<path opacity="0.24" d="M141.984 50.1507C141.79 56.0747 139.491 61.7155 136.837 67.0003C132.357 75.9331 126.687 84.5021 124.071 94.2455C122.922 98.4936 123.502 102.981 123.108 107.13C122.774 110.64 121.754 113.914 118.421 116.616C114.895 119.474 110.011 119.812 105.475 119.83C95.6351 119.89 85.4201 119.16 76.3392 122.948C73.6489 124.084 71.1139 125.583 68.3511 126.539C62.986 128.402 57.1288 128.056 51.4608 127.701C45.9377 127.347 40.3265 126.973 35.0987 125.188C29.8708 123.403 24.938 119.992 22.5325 114.982C21.3518 112.527 20.821 109.817 20.0545 107.187C19.7176 106 19.2846 104.843 18.7598 103.726C15.2435 96.4514 6.67535 92.8139 2.73436 85.7726C0.00518293 80.9035 -0.152767 75.0263 0.072506 69.4374C0.308137 63.5498 0.947707 57.5349 3.5034 52.2293C6.14712 46.7392 10.6759 42.3897 15.4714 38.6326C24.2078 31.7811 34.0526 26.5352 43.2888 20.4033C50.2956 15.7473 56.9683 10.5716 64.348 6.53909C71.7276 2.50661 79.9721 -0.393033 88.3538 0.0434724C100.557 0.65406 111.308 8.06946 120.76 15.8304C126.156 20.2474 131.433 24.9399 135.462 30.6404C139.491 36.341 142.23 43.1692 141.984 50.1507Z" fill="#0098ED"/>
<path opacity="0.24" d="M123.108 107.13C122.774 110.64 121.754 113.914 118.421 116.616C114.895 119.474 110.011 119.812 105.475 119.83C95.6351 119.89 85.4201 119.16 76.3393 122.948C73.6489 124.084 71.114 125.583 68.3511 126.539C62.986 128.402 57.1289 128.057 51.4608 127.701C45.9377 127.347 40.3266 126.973 35.0987 125.188C29.8708 123.403 24.9381 119.992 22.5326 114.982C21.3518 112.527 20.821 109.817 20.0546 107.187C34.7465 103.469 50.8497 109.445 65.5028 105.275C68.9415 104.288 72.2144 102.77 75.6919 101.923C84.7314 99.7044 92.2405 103.134 101.024 104.132C108.344 104.95 114.84 103.914 122.083 106.676C122.422 106.816 122.777 106.964 123.108 107.13Z" fill="#0098ED"/>
<path d="M103.96 70.2013H99.0504V111.334H103.96V70.2013Z" fill="#0098ED"/>
<path d="M104.051 70.2013H99.1411V111.334H104.051V70.2013Z" fill="url(#paint0_linear)"/>
<path d="M52.3747 6.40918H2.79126V74.2234H52.3747V6.40918Z" fill="#0098ED"/>
<path d="M52.3747 6.40918H2.79126V74.2234H52.3747V6.40918Z" fill="url(#paint1_linear)"/>
<path opacity="0.3" d="M34.4772 50.7482C41.6733 50.7482 47.5069 44.8946 47.5069 37.6739C47.5069 30.4531 41.6733 24.5995 34.4772 24.5995C27.2812 24.5995 21.4476 30.4531 21.4476 37.6739C21.4476 44.8946 27.2812 50.7482 34.4772 50.7482Z" fill="#0098ED"/>
<path d="M43.5347 78.5754H51.8699C55.0671 78.5754 58.1336 79.849 60.3957 82.1164C62.6577 84.3838 63.9302 87.4594 63.9336 90.6677V117.071H31.4709V90.6677C31.4744 87.4594 32.7469 84.3838 35.0089 82.1164C37.271 79.849 40.3375 78.5754 43.5347 78.5754Z" fill="#0098ED"/>
<path d="M63.9337 90.6859V117.071H31.4684V90.6859C31.4643 89.7857 31.5668 88.8882 31.7739 88.0123C32.3748 85.3314 33.8679 82.936 36.0071 81.2206C38.1464 79.5052 40.8041 78.5723 43.5425 78.5754H51.875C53.4593 78.5761 55.0279 78.8899 56.4913 79.4989C57.9547 80.1079 59.2842 81.0001 60.4039 82.1247C61.5237 83.2492 62.4117 84.5841 63.0173 86.053C63.623 87.5219 63.9343 89.0962 63.9337 90.6859Z" fill="url(#paint2_linear)"/>
<path d="M63.9337 90.6859V99.3016C63.8664 99.39 63.7965 99.4809 63.7292 99.5615C62.5899 96.4852 61.4497 93.4019 60.3086 90.3117C58.5997 93.5284 58.2164 97.3036 58.4624 100.933C58.7084 104.563 59.5318 108.13 60.1222 111.719C60.2594 112.548 60.3811 113.426 60.0549 114.203C59.3842 115.801 57.0668 116.118 55.6219 115.169C54.177 114.221 53.4805 112.477 53.1154 110.783C52.0797 105.922 53.1646 100.874 52.8565 95.9135C52.7374 94.1779 52.4241 92.3747 51.3728 90.9769C49.8684 88.997 47.2454 88.3267 44.8191 87.7732C41.3779 86.9938 37.5871 86.2637 34.5006 87.9603C34.0086 88.2201 33.5089 88.5631 32.947 88.5709C32.7229 88.5707 32.5018 88.5202 32.2997 88.4231C32.0976 88.3259 31.9198 88.1847 31.7792 88.0097C32.3804 85.3302 33.8729 82.936 36.011 81.2212C38.1492 79.5064 40.8054 78.5733 43.5426 78.5754H51.8751C53.4594 78.5761 55.028 78.8899 56.4913 79.4989C57.9547 80.1079 59.2842 81.0001 60.404 82.1247C61.5237 83.2492 62.4118 84.5841 63.0174 86.053C63.623 87.5219 63.9344 89.0962 63.9337 90.6859Z" fill="url(#paint3_linear)"/>
<path d="M44.2727 44.1694C43.8144 45.5491 43.9646 47.0483 44.1226 48.4955C44.151 48.7553 44.252 49.1061 44.5213 49.1217C44.6282 49.1173 44.7316 49.0822 44.8191 49.0204C45.2053 48.7863 45.5507 48.4906 45.8419 48.1448C45.9868 47.9323 46.1769 47.7548 46.3986 47.6251C46.9346 47.3835 47.4965 47.8538 48.0273 48.111C48.4734 48.3247 48.9748 48.3937 49.4618 48.3084C49.5887 48.2851 49.7389 48.2305 49.7673 48.1032C49.7773 48.0385 49.7673 47.9724 49.7389 47.9135C49.4644 47.1912 48.7653 46.7287 48.3121 46.0947C47.8963 45.4671 47.6541 44.7399 47.6104 43.9876C47.5509 43.4056 47.8072 42.3663 47.3049 41.9453C46.1319 40.958 44.5628 43.2964 44.2727 44.1694Z" stroke="#0098ED" stroke-width="0.95" stroke-miterlimit="10"/>
<path d="M51.6472 43.7798C52.0356 44.1591 55.0625 46.8405 55.3085 47.3264C55.7703 48.1808 56.1534 49.0757 56.453 50C56.7302 51.0351 56.9122 52.0935 56.9968 53.162L57.4913 57.6362C57.5075 58.091 57.629 58.5358 57.8461 58.9353C58.1365 59.3081 58.5146 59.6028 58.9465 59.7927C61.3895 61.1045 63.9232 62.2386 66.5282 63.1861C66.5875 64.081 66.5362 64.9799 66.3754 65.8622C66.373 65.9069 66.3617 65.9506 66.3422 65.9908C66.3226 66.031 66.2951 66.0668 66.2615 66.0961C66.1869 66.1309 66.1022 66.1374 66.0232 66.1143C61.9321 65.379 58.0791 63.6018 53.9802 62.921C53.7432 62.9039 53.5143 62.827 53.3147 62.6976C53.1419 62.5355 53.0135 62.3315 52.9418 62.1052C52.613 61.3075 52.2815 60.5073 52.02 59.6836C51.642 58.4962 51.4063 57.2673 51.049 56.0747C50.8367 55.3601 50.5778 54.6534 50.4353 53.9207C50.2178 52.7983 50.2748 51.6446 50.3344 50.504C50.3456 49.777 50.4386 49.0536 50.6114 48.3475C51.0309 46.8847 50.0366 42.2078 51.6472 43.7798Z" fill="#0098ED"/>
<path d="M54.1355 47.6667C54.5239 48.046 55.0625 46.8404 55.3085 47.3263C55.7703 48.1807 56.1534 49.0756 56.453 49.9999C56.7302 51.035 56.9122 52.0935 56.9968 53.162L57.4913 57.6361C57.5075 58.0909 57.629 58.5357 57.8461 58.9353C58.1365 59.3081 58.5146 59.6027 58.9465 59.7927C61.3895 61.1045 63.9232 62.2385 66.5282 63.186C66.5875 64.081 66.5362 64.9799 66.3754 65.8622C66.373 65.9068 66.3617 65.9506 66.3422 65.9907C66.3226 66.0309 66.2951 66.0667 66.2615 66.096C66.1869 66.1309 66.1022 66.1373 66.0232 66.1142C61.9321 65.3789 58.0791 63.6017 53.9802 62.921C53.7432 62.9038 53.5143 62.8269 53.3147 62.6975C53.1419 62.5354 53.0135 62.3314 52.9418 62.1051C52.613 61.3075 52.2815 60.5072 52.02 59.6835C51.642 58.4962 51.4063 57.2672 51.049 56.0746C50.8367 55.3601 50.5778 54.6533 50.4353 53.9206C50.2178 52.7982 50.2748 51.6446 50.3344 50.504C50.3456 49.7769 50.4386 49.0535 50.6114 48.3474C51.0309 46.8846 52.5275 46.0947 54.1355 47.6667Z" fill="url(#paint4_linear)"/>
<path d="M55.6295 50.8808L55.8522 57.353C55.9092 59.0704 55.8522 61.0451 54.5083 62.139C53.628 62.8509 52.3411 63.0328 51.6393 63.9162C51.1836 64.4878 51.0671 65.2543 51.0878 65.9818C51.1292 67.442 51.6549 68.8398 52.2012 70.2039C52.3757 70.5477 52.4604 70.9304 52.4472 71.316C52.3644 72.0383 51.6471 72.5034 50.9817 72.8178C47.8314 74.2743 44.3007 74.6866 40.9013 73.9948C39.2076 73.6552 37.5761 73.0558 36.0644 72.2176C35.8961 72.1454 35.7547 72.0217 35.6605 71.8642C35.5954 71.666 35.6046 71.4507 35.6864 71.2588C36.3751 68.9957 37.6258 66.9119 38.1203 64.5995C38.5994 62.3546 38.3379 60.0292 38.4388 57.7401C38.5411 55.4352 39.0105 53.1615 39.8293 51.0055C40.3187 49.7064 40.9531 48.441 41.9474 47.4719C43.646 45.8116 46.1473 45.2556 48.5295 45.0165C49.1564 44.9268 49.7936 44.9373 50.4172 45.0477C51.238 45.2296 51.9112 45.7155 52.6466 46.087C53.2396 46.3884 54.0759 46.469 54.6145 46.7963C55.7953 47.516 55.5881 49.6544 55.6295 50.8808Z" fill="#0098ED"/>
<path d="M55.6295 50.8808L55.8522 57.353C55.9092 59.0704 55.8522 61.0451 54.5083 62.139C53.628 62.8509 52.3411 63.0328 51.6393 63.9162C51.1836 64.4878 51.0671 65.2543 51.0878 65.9818C51.1292 67.442 51.6549 68.8398 52.2012 70.2039C52.3757 70.5477 52.4604 70.9304 52.4472 71.316C52.3644 72.0383 51.6471 72.5034 50.9817 72.8178C47.8314 74.2743 44.3007 74.6866 40.9013 73.9948C39.2076 73.6552 37.5761 73.0558 36.0644 72.2176C35.8961 72.1454 35.7547 72.0217 35.6605 71.8642C35.5954 71.666 35.6046 71.4507 35.6864 71.2588C36.3751 68.9957 37.6258 66.9119 38.1203 64.5995C38.5994 62.3546 38.3379 60.0292 38.4388 57.7401C38.5411 55.4352 39.0105 53.1615 39.8293 51.0055C40.3187 49.7064 40.9531 48.441 41.9474 47.4719C43.646 45.8116 46.1473 45.2556 48.5295 45.0165C49.1564 44.9268 49.7936 44.9373 50.4172 45.0477C51.238 45.2296 51.9112 45.7155 52.6466 46.087C53.2396 46.3884 54.0759 46.469 54.6145 46.7963C55.7953 47.516 55.5881 49.6544 55.6295 50.8808Z" fill="url(#paint5_linear)"/>
<path d="M47.9444 39.186C47.7103 40.2178 47.5571 41.2664 47.4861 42.3221C47.4187 43.3043 47.4343 44.3435 47.9211 45.1984C48.2024 45.6604 48.5709 46.0629 49.006 46.3832C49.4817 46.7991 50.0637 47.0736 50.6865 47.1756C50.9977 47.2213 51.3154 47.1762 51.6019 47.0459C51.8883 46.9155 52.1314 46.7053 52.3022 46.4403C52.5741 45.9441 52.4913 45.3387 52.3981 44.7827L52.1236 43.0964C52.0567 42.4502 51.8687 41.8225 51.5695 41.2464C50.9558 40.2227 49.7388 39.7577 48.6021 39.4069" fill="url(#paint6_linear)"/>
<path d="M51.0645 46.0896C51.2376 46.2656 51.4483 46.3997 51.6808 46.4819C51.7976 46.5211 51.9233 46.5248 52.0422 46.4924C52.1611 46.4601 52.2678 46.3931 52.3488 46.3C52.4415 46.143 52.4873 45.9627 52.4809 45.7804C52.5094 45.1802 52.5327 44.58 52.5456 43.9772C52.5771 43.4964 52.5404 43.0135 52.4369 42.543C52.2427 41.8025 51.7481 41.1815 51.2406 40.6099C50.7331 40.0382 49.8061 38.9652 48.9335 38.9989C47.9754 39.0353 48.2835 40.441 48.3794 41.0568C48.6778 42.992 49.625 44.7673 51.0645 46.0896Z" fill="url(#paint7_linear)"/>
<path d="M40.1609 47.1652C39.7025 48.1266 39.4617 49.1763 39.1665 50.2026C38.8455 51.312 38.4597 52.4007 38.2111 53.5283C37.9412 54.9246 37.7785 56.3396 37.7243 57.7609C37.6311 59.2289 37.5378 60.6969 37.5378 62.1779C37.5378 63.2769 37.6362 64.4877 38.4156 65.262C39.0189 65.8596 39.9019 66.0571 40.746 66.213C43.758 66.7722 46.8038 67.129 49.8632 67.2808C50.0828 67.3196 50.3088 67.2701 50.4924 67.1431C50.6105 67.0113 50.6824 66.8443 50.6969 66.6677C50.8322 65.9293 50.8774 65.1772 50.8316 64.428L43.2577 62.0558C43.1386 58.0571 44.9745 54.261 45.513 50.3117C45.5899 49.4879 45.7126 48.669 45.8807 47.859C46.0853 47.0509 46.4348 46.2844 46.6316 45.4764C46.787 44.8242 46.9812 43.4549 46.1578 43.1561C45.526 42.9275 44.4514 43.416 43.8792 43.6472C42.2594 44.3345 40.9398 45.5831 40.1609 47.1652Z" fill="#0098ED"/>
<path d="M55.3085 64.7397C56.4504 64.6176 57.5949 64.4254 58.7419 64.5007C59.889 64.5761 61.0724 64.9528 61.8492 65.7998C62.1035 66.0509 62.2759 66.3734 62.3437 66.7248C62.3743 66.9006 62.3542 67.0815 62.2858 67.2463C62.2175 67.4111 62.1037 67.5528 61.9579 67.655C61.6006 67.8706 61.1474 67.7459 60.7306 67.7433C59.7518 67.7433 58.8015 68.4345 57.8616 68.172C57.2764 68.0058 56.8025 67.4887 56.1966 67.4679C55.4742 67.4419 54.9252 68.1279 54.2235 68.3046C53.6513 68.4501 53.048 68.2396 52.5404 67.9382C52.1598 67.7122 51.8154 67.4315 51.44 67.1977C51.1163 66.9924 50.6425 66.8703 50.3602 66.6157C49.9071 66.2104 50.1013 65.7998 50.5389 65.4465C51.7377 64.4747 53.874 64.8956 55.3085 64.7397Z" fill="url(#paint8_linear)"/>
<path d="M72.6805 64.0304C73.6375 64.0204 74.5943 64.0611 75.547 64.1526C76.3184 64.2119 77.0715 64.4183 77.766 64.7606C78.1123 64.9328 78.4212 65.1721 78.6749 65.4646C78.9287 65.7571 79.1223 66.0971 79.2445 66.465C78.1285 67.0808 76.5827 66.4182 75.5418 67.1535C75.3281 67.3267 75.1233 67.5105 74.9281 67.7044C74.0814 68.4423 72.8747 68.5826 71.7535 68.58C70.8341 68.6181 69.9164 68.4697 69.0554 68.1435C68.2605 67.8005 64.6924 65.0594 65.9482 64.1785C66.6266 63.7031 68.1077 63.9993 68.8716 64.0045L72.6805 64.0304Z" fill="url(#paint9_linear)"/>
<path d="M63.1957 67.3302L63.4857 66.3013L74.506 65.8856L74.6769 67.2393L63.1957 67.3302Z" fill="#0098ED"/>
<path d="M63.1957 67.3302L63.4857 66.3013L74.506 65.8856L74.6769 67.2393L63.1957 67.3302Z" fill="url(#paint10_linear)"/>
<path d="M95.5082 61.5465H64.6716L68.8016 39.4822H99.6382L95.5082 61.5465Z" fill="#0098ED"/>
<path d="M99.633 39.4797L95.5056 61.5466H64.6716L68.7965 39.4797H99.633Z" fill="url(#paint11_linear)"/>
<path d="M99.633 39.4797L95.5056 61.5466H65.9197L70.0445 39.4797H99.633Z" fill="url(#paint12_linear)"/>
<path d="M79.3351 51.4601L83.1155 65.9895H74.6768L73.5712 67.2393H88.926L84.2238 50.1636L80.0031 50.0259L79.3351 51.4601Z" fill="#0098ED"/>
<path d="M79.3351 51.4601L83.1155 65.9895H74.6768L73.5712 67.2393H88.926L84.2238 50.1636L80.0031 50.0259L79.3351 51.4601Z" fill="url(#paint13_linear)"/>
<path d="M80.0032 50.0259L84.2238 65.9895H74.6769V67.2393H90.0343L85.3295 50.1636L80.0032 50.0259Z" fill="#0098ED"/>
<path d="M79.1461 112.573C79.1407 112.661 79.118 112.746 79.0793 112.824C79.0406 112.902 78.9867 112.971 78.9208 113.028C76.6706 115.413 72.7788 115.315 69.7415 114.093C69.2107 113.875 68.6618 113.61 68.3277 113.145C67.9549 112.625 67.9057 111.934 67.8746 111.282C67.639 105.584 67.6157 99.8499 66.6084 94.2247C66.2744 92.3305 65.8316 90.4572 65.596 88.5449C65.2723 85.8037 65.4199 83.0236 65.3112 80.2617C65.326 80.0553 65.2621 79.851 65.1325 79.6901C64.979 79.5723 64.7858 79.5192 64.5939 79.542C63.7783 79.5238 62.973 79.5134 62.1573 79.503C62.1366 85.3023 61.7534 90.8236 61.8621 96.6202C61.9295 99.9538 61.2226 103.256 61.0361 106.59C60.9855 107.171 61.009 107.757 61.106 108.333C61.4893 110.168 63.1387 111.409 64.1304 112.997C64.4069 113.39 64.5577 113.859 64.5628 114.34C64.5136 115.099 63.8275 115.689 63.0895 115.878C62.3515 116.068 61.5773 115.897 60.8497 115.699C60.3011 115.571 59.7765 115.355 59.2961 115.06C58.9165 114.786 58.5737 114.463 58.2759 114.101C57.6855 113.431 57.1159 112.732 56.5747 112.023C56.3516 111.756 56.1763 111.453 56.0568 111.126C55.7823 110.238 56.3157 109.331 56.6938 108.484C57.5214 106.625 57.7037 104.542 57.2117 102.568C56.8008 101.13 56.5763 99.6456 56.5436 98.1506C56.5125 93.181 56.4366 88.2114 56.3157 83.2419C52.596 83.7276 48.8365 83.8295 45.0961 83.5459C42.5792 83.3692 39.8863 82.9249 38.0582 81.1789C36.0852 79.3055 35.5725 76.3591 35.5155 73.6439C35.4948 72.6774 35.5155 71.6719 35.9971 70.843C39.6403 70.8145 44.5834 71.2094 48.2292 71.1782C49.0684 71.1418 49.9089 71.1984 50.7357 71.3471C51.101 71.3893 51.4685 71.4093 51.8362 71.4069C53.6824 71.4744 57.4758 71.5835 61.2588 72.3318C61.2749 72.3365 61.292 72.3365 61.308 72.3318C63.7265 72.8151 66.1346 73.5556 68.0196 74.7378C68.1957 74.8469 68.3744 74.9561 68.5375 75.073C68.8647 75.3037 69.1801 75.5509 69.4826 75.8135L69.5111 75.8421C70.743 76.9274 71.5246 78.4367 71.7017 80.072C71.7327 80.3682 71.7612 80.7138 71.7819 81.0983C71.8027 81.4829 71.8104 81.9272 71.8104 82.3974C71.8104 82.5637 71.8104 82.743 71.8104 82.9301C71.8596 87.8668 71.466 96.1811 71.9192 102.651C72.1237 105.509 72.7529 108.754 75.1714 110.31C76.3392 111.069 77.7944 111.326 78.8742 112.215C78.9412 112.253 78.9999 112.305 79.0466 112.366C79.0933 112.428 79.1272 112.498 79.1461 112.573Z" fill="#606161"/>
<path d="M79.1461 112.573C79.1407 112.661 79.118 112.746 79.0793 112.824C79.0406 112.902 78.9867 112.971 78.9208 113.028C76.6706 115.413 72.7788 115.315 69.7415 114.093C69.2107 113.875 68.6618 113.61 68.3277 113.145C67.9549 112.625 67.9057 111.934 67.8746 111.282C67.639 105.584 67.6157 99.8499 66.6084 94.2247C66.2744 92.3305 65.8316 90.4572 65.596 88.5449C65.2723 85.8037 65.4199 83.0236 65.3112 80.2617C65.326 80.0553 65.2621 79.851 65.1325 79.6901C64.979 79.5723 64.7858 79.5192 64.5939 79.542C63.7783 79.5238 62.973 79.5134 62.1573 79.503C62.1366 85.3023 61.7534 90.8236 61.8621 96.6202C61.9295 99.9538 61.2226 103.256 61.0361 106.59C60.9855 107.171 61.009 107.757 61.106 108.333C61.4893 110.168 63.1387 111.409 64.1304 112.997C64.4069 113.39 64.5577 113.859 64.5628 114.34C64.5136 115.099 63.8275 115.689 63.0895 115.878C62.3515 116.068 61.5773 115.897 60.8497 115.699C60.3011 115.571 59.7765 115.355 59.2961 115.06C58.9165 114.786 58.5737 114.463 58.2759 114.101C57.6855 113.431 57.1159 112.732 56.5747 112.023C56.3516 111.756 56.1763 111.453 56.0568 111.126C55.7823 110.238 56.3157 109.331 56.6938 108.484C57.5214 106.625 57.7037 104.542 57.2117 102.568C56.8008 101.13 56.5763 99.6456 56.5436 98.1506C56.5125 93.181 56.4366 88.2114 56.3157 83.2419C52.596 83.7276 48.8365 83.8295 45.0961 83.5459C42.5792 83.3692 39.8863 82.9249 38.0582 81.1789C36.0852 79.3055 35.5725 76.3591 35.5155 73.6439C35.4948 72.6774 35.5155 71.6719 35.9971 70.843C39.6403 70.8145 44.5834 71.2094 48.2292 71.1782C49.0684 71.1418 49.9089 71.1984 50.7357 71.3471C51.101 71.3893 51.4685 71.4093 51.8362 71.4069C53.6824 71.4744 57.4758 71.5835 61.2588 72.3318C61.2749 72.3365 61.292 72.3365 61.308 72.3318C63.7265 72.8151 66.1346 73.5556 68.0196 74.7378C68.1957 74.8469 68.3744 74.9561 68.5375 75.073C68.8647 75.3037 69.1801 75.5509 69.4826 75.8135L69.5111 75.8421C70.743 76.9274 71.5246 78.4367 71.7017 80.072C71.7327 80.3682 71.7612 80.7138 71.7819 81.0983C71.8027 81.4829 71.8104 81.9272 71.8104 82.3974C71.8104 82.5637 71.8104 82.743 71.8104 82.9301C71.8596 87.8668 71.466 96.1811 71.9192 102.651C72.1237 105.509 72.7529 108.754 75.1714 110.31C76.3392 111.069 77.7944 111.326 78.8742 112.215C78.9412 112.253 78.9999 112.305 79.0466 112.366C79.0933 112.428 79.1272 112.498 79.1461 112.573Z" fill="url(#paint14_linear)"/>
<path d="M79.1461 112.573C79.1407 112.661 79.118 112.746 79.0793 112.824C79.0407 112.902 78.9867 112.971 78.9208 113.028C76.6707 115.413 72.7789 115.315 69.7416 114.093C69.2107 113.875 68.6618 113.61 68.3278 113.145C67.9549 112.625 67.9057 111.934 67.8746 111.282C67.639 105.584 67.6157 99.8499 66.6084 94.2247C66.2744 92.3306 65.8316 90.4572 65.596 88.5449C65.2723 85.8038 65.4199 83.0236 65.3112 80.2617C65.326 80.0553 65.2621 79.851 65.1325 79.6901C64.979 79.5723 64.7858 79.5192 64.5939 79.542C63.7783 79.5238 62.973 79.5134 62.1573 79.503C62.1573 79.503 62.2247 77.7882 61.6058 77.0295C60.987 76.2708 49.9123 72.7891 49.9123 72.7891C49.9123 72.7891 49.2054 71.8512 51.8388 71.3991C52.0252 71.3783 52.2324 71.3497 52.4473 71.3185C54.0786 71.1237 57.6959 71.4978 61.2511 72.3241C61.2671 72.3287 61.2842 72.3287 61.3003 72.3241C63.8068 72.9165 66.2718 73.7349 68.0119 74.73C68.1879 74.8392 68.3666 74.9483 68.5297 75.0652C68.8677 75.281 69.1842 75.529 69.4748 75.8057L69.5033 75.8343C69.6731 76.0046 69.8273 76.1898 69.9642 76.3877C70.9431 77.7827 71.5655 79.3976 71.7768 81.0905C71.8228 81.522 71.8323 81.9566 71.8053 82.3897C71.8017 82.5186 71.7887 82.6471 71.7664 82.7742L71.8156 82.9223C71.8648 87.859 71.4712 96.1734 71.9244 102.643C72.1289 105.501 72.7581 108.746 75.1766 110.303C76.3444 111.061 77.7996 111.319 78.8794 112.207C78.9463 112.247 79.0044 112.3 79.0503 112.363C79.0962 112.426 79.1287 112.497 79.1461 112.573Z" fill="url(#paint15_linear)"/>
<path d="M109.092 67.2834H42.9082V70.7989H109.092V67.2834Z" fill="#0098ED"/>
<path d="M58.7705 70.2013H53.8611V119.293H58.7705V70.2013Z" fill="#0098ED"/>
<path d="M109.108 67.2834H42.9082V68.4657H109.108V67.2834Z" fill="url(#paint16_linear)"/>
<path d="M78.9208 70.617H59.4618V74.226H78.9208V70.617Z" fill="#0098ED"/>
<path d="M78.9208 70.617H59.4618V72.4228H78.9208V70.617Z" fill="url(#paint17_linear)"/>
<path d="M56.0543 44.7203C55.6701 45.1366 55.1778 45.4372 54.6328 45.5881C53.7679 45.757 52.929 45.2296 52.2532 44.6606C50.5905 43.2651 49.2786 41.4965 48.4235 39.4978C48.1939 38.8931 47.9294 38.3023 47.6312 37.7284C47.2583 37.0841 46.743 36.5125 46.5022 35.8083C46.2614 35.1042 46.3805 33.4179 47.046 33.0906C47.2567 33.0091 47.473 32.9431 47.6933 32.8931C48.496 32.6333 49.089 32.7008 49.6224 32.0435C50.8109 30.5781 52.2402 29.0685 54.1123 28.8528C55.3552 28.7099 56.5826 29.175 57.7193 29.6973C58.856 30.2195 60.4355 31.0587 60.9845 32.2513C61.5334 33.4439 61.0725 35.151 60.8084 36.3332C60.096 39.5433 58.4399 42.4651 56.0543 44.7203Z" fill="url(#paint18_linear)"/>
<path d="M55.4872 31.29C55.5157 32.0694 56.3702 32.5319 57.1314 32.6774C57.8927 32.8229 58.742 32.8307 59.3298 33.3374C59.7855 33.7297 60.0781 34.4053 60.6737 34.4754C60.9525 34.493 61.2284 34.4091 61.4505 34.239C62.3412 33.6388 62.7063 32.4514 62.5561 31.3809C62.4059 30.3104 61.8233 29.3595 61.1449 28.5228C58.7653 25.618 54.9357 23.8902 51.207 24.2799C47.4783 24.6696 44.0086 27.338 42.8848 30.9314C42.2893 32.8411 42.3333 34.8885 41.9319 36.8502C41.4774 39.0625 40.4636 41.1204 38.9878 42.8262C37.4342 44.606 35.3187 46.1415 34.8941 48.4644C34.6351 49.9506 35.1375 51.4965 35.9816 52.7515C36.8257 54.0064 37.9702 55.0171 39.1044 56.0149C40.2333 54.113 42.6958 53.5907 44.5135 52.341C45.6127 51.565 46.486 50.5091 47.0435 49.282C47.601 48.055 47.8226 46.701 47.6855 45.3595C47.4965 43.6992 47.5379 43.6368 47.6855 41.9817C47.7813 40.9944 48.5167 40.4878 48.4053 39.503C48.3328 38.8716 46.9423 36.2838 46.7714 35.6706C46.4866 34.6521 46.7844 33.1893 48.1075 33.1945C49.2158 33.1945 49.889 34.6183 50.2023 35.4861C51.2795 35.099 55.539 32.6644 55.4872 31.29Z" fill="#606161"/>
<path d="M55.4872 31.29C55.5157 32.0694 56.3702 32.5319 57.1314 32.6774C57.8927 32.8229 58.742 32.8307 59.3298 33.3374C59.7855 33.7297 60.0781 34.4053 60.6737 34.4754C60.9525 34.493 61.2284 34.4091 61.4505 34.239C62.3412 33.6388 62.7063 32.4514 62.5561 31.3809C62.4059 30.3104 61.8233 29.3595 61.1449 28.5228C58.7653 25.618 54.9357 23.8902 51.207 24.2799C47.4783 24.6696 44.0086 27.338 42.8848 30.9314C42.2893 32.8411 42.3333 34.8885 41.9319 36.8502C41.4774 39.0625 40.4636 41.1204 38.9878 42.8262C37.4342 44.606 35.3187 46.1415 34.8941 48.4644C34.6351 49.9506 35.1375 51.4965 35.9816 52.7515C36.8257 54.0064 37.9702 55.0171 39.1044 56.0149C40.2333 54.113 42.6958 53.5907 44.5135 52.341C45.6127 51.565 46.486 50.5091 47.0435 49.282C47.601 48.055 47.8226 46.701 47.6855 45.3595C47.4965 43.6992 47.5379 43.6368 47.6855 41.9817C47.7813 40.9944 48.5167 40.4878 48.4053 39.503C48.3328 38.8716 46.9423 36.2838 46.7714 35.6706C46.4866 34.6521 46.7844 33.1893 48.1075 33.1945C49.2158 33.1945 49.889 34.6183 50.2023 35.4861C51.2795 35.099 55.539 32.6644 55.4872 31.29Z" fill="url(#paint19_linear)"/>
<path d="M121.736 18.3241L76.1171 18.4519L76.1543 31.8224L121.773 31.6946L121.736 18.3241Z" fill="white"/>
<path d="M84.8833 22.0573L79.311 22.0797L79.347 31.0774L84.9193 31.0549L84.8833 22.0573Z" fill="#0098ED"/>
<path d="M84.8833 22.0573L79.311 22.0797L79.347 31.0774L84.9193 31.0549L84.8833 22.0573Z" fill="url(#paint20_linear)"/>
<path d="M90.4192 22.0531L84.8469 22.0756L84.8829 31.0732L90.4552 31.0508L90.4192 22.0531Z" fill="#0098ED"/>
<path d="M90.4192 22.0531L84.8469 22.0756L84.8829 31.0732L90.4552 31.0508L90.4192 22.0531Z" fill="url(#paint21_linear)"/>
<path d="M95.9577 22.0464L90.3855 22.0688L90.4215 31.0665L95.9937 31.0441L95.9577 22.0464Z" fill="#0098ED"/>
<path d="M95.9577 22.0464L90.3855 22.0688L90.4215 31.0665L95.9937 31.0441L95.9577 22.0464Z" fill="url(#paint22_linear)"/>
<path d="M101.494 22.0423L95.9214 22.0648L95.9574 31.0624L101.53 31.04L101.494 22.0423Z" fill="#0098ED"/>
<path d="M101.494 22.0423L95.9214 22.0648L95.9574 31.0624L101.53 31.04L101.494 22.0423Z" fill="url(#paint23_linear)"/>
<path d="M107.03 22.0382L101.457 22.0607L101.493 31.0583L107.066 31.0359L107.03 22.0382Z" fill="#0098ED"/>
<path d="M112.633 22L107.061 22.0225L107.097 31.0201L112.669 30.9977L112.633 22Z" fill="#0098ED"/>
<path d="M118.104 22.0274L112.532 22.0498L112.568 31.0475L118.14 31.025L118.104 22.0274Z" fill="#0098ED"/>
<path d="M111.888 31.0769L107.168 31.0379L107.132 22.0376L111.852 22.0792L111.888 31.0769Z" fill="url(#paint24_linear)"/>
<path d="M117.426 22.0587L111.854 22.0811L111.89 31.0788L117.462 31.0563L117.426 22.0587Z" fill="url(#paint25_linear)"/>
<path d="M57.1107 70.2013H52.2013V119.293H57.1107V70.2013Z" fill="#0098ED"/>
<path d="M57.1107 70.2013H52.2013V119.293H57.1107V70.2013Z" fill="url(#paint26_linear)"/>
<path d="M56.6033 64.5553L54.9435 59.0938L55.5416 58.7716L57.3852 64.6021L56.6033 64.5553Z" fill="#0098ED"/>
<path d="M56.6033 64.5553L54.9435 59.0938L55.5416 58.7716L57.3852 64.6021L56.6033 64.5553Z" fill="url(#paint27_linear)"/>
<path opacity="0.51" d="M28.1981 35.338C35.3941 35.338 41.2277 29.4844 41.2277 22.2636C41.2277 15.0429 35.3941 9.18927 28.1981 9.18927C21.002 9.18927 15.1685 15.0429 15.1685 22.2636C15.1685 29.4844 21.002 35.338 28.1981 35.338Z" fill="#0098ED"/>
<path opacity="0.51" d="M19.3968 51.5823C26.5929 51.5823 32.4264 45.7287 32.4264 38.5079C32.4264 31.2871 26.5929 25.4335 19.3968 25.4335C12.2007 25.4335 6.36719 31.2871 6.36719 38.5079C6.36719 45.7287 12.2007 51.5823 19.3968 51.5823Z" fill="#0098ED"/>
<path d="M24.2207 38.1571L24.4615 42.808L25.6397 41.0723L27.0664 43.2938L27.9675 42.6677L26.331 40.6202L28.1979 40.3085L24.2207 38.1571Z" fill="white"/>
<path opacity="0.51" d="M32.5766 58.4001H9.33716V60.6216H32.5766V58.4001Z" fill="#0098ED"/>
<path opacity="0.51" d="M32.5766 60.528H9.33716V62.7495H32.5766V60.528Z" fill="#0098ED"/>
<path opacity="0.51" d="M32.5766 60.528H9.33716V62.7495H32.5766V60.528Z" fill="#0098ED"/>
<defs>
<linearGradient id="paint0_linear" x1="101.64" y1="86.8119" x2="102.107" y2="44.0006" gradientUnits="userSpaceOnUse">
<stop stop-color="#010101" stop-opacity="0"/>
<stop offset="0.95" stop-color="#010101"/>
</linearGradient>
<linearGradient id="paint1_linear" x1="-54.7597" y1="-2.28455" x2="122.562" y2="88.8342" gradientUnits="userSpaceOnUse">
<stop stop-color="white" stop-opacity="0"/>
<stop offset="0.07" stop-color="white" stop-opacity="0.22"/>
<stop offset="0.16" stop-color="white" stop-opacity="0.45"/>
<stop offset="0.25" stop-color="white" stop-opacity="0.65"/>
<stop offset="0.33" stop-color="white" stop-opacity="0.8"/>
<stop offset="0.4" stop-color="white" stop-opacity="0.91"/>
<stop offset="0.46" stop-color="white" stop-opacity="0.98"/>
<stop offset="0.51" stop-color="white"/>
</linearGradient>
<linearGradient id="paint2_linear" x1="5867.45" y1="16445" x2="9587.87" y2="8717.95" gradientUnits="userSpaceOnUse">
<stop stop-color="#010101" stop-opacity="0"/>
<stop offset="0.95" stop-color="#010101"/>
</linearGradient>
<linearGradient id="paint3_linear" x1="5278.12" y1="15499.6" x2="14089.4" y2="5513.29" gradientUnits="userSpaceOnUse">
<stop stop-color="#010101" stop-opacity="0"/>
<stop offset="0.95" stop-color="#010101"/>
</linearGradient>
<linearGradient id="paint4_linear" x1="3823.38" y1="4318.52" x2="2273.66" y2="5006.13" gradientUnits="userSpaceOnUse">
<stop stop-color="#010101" stop-opacity="0"/>
<stop offset="0.95" stop-color="#010101"/>
</linearGradient>
<linearGradient id="paint5_linear" x1="4076.65" y1="6904.15" x2="816.36" y2="6572.18" gradientUnits="userSpaceOnUse">
<stop stop-color="#010101" stop-opacity="0"/>
<stop offset="0.95" stop-color="#010101"/>
</linearGradient>
<linearGradient id="paint6_linear" x1="47.4638" y1="44.3433" x2="51.9574" y2="41.9652" gradientUnits="userSpaceOnUse">
<stop stop-color="#E4C5D5"/>
<stop offset="0.42" stop-color="#E9D3CF"/>
<stop offset="1" stop-color="#EFE8CA"/>
</linearGradient>
<linearGradient id="paint7_linear" x1="855.687" y1="1436.99" x2="1587.35" y2="846.944" gradientUnits="userSpaceOnUse">
<stop stop-color="#010101" stop-opacity="0"/>
<stop offset="0.95" stop-color="#010101"/>
</linearGradient>
<linearGradient id="paint8_linear" x1="2505.53" y1="1061.16" x2="3085.49" y2="1061.16" gradientUnits="userSpaceOnUse">
<stop stop-color="#E4C5D5"/>
<stop offset="0.42" stop-color="#E9D3CF"/>
<stop offset="1" stop-color="#EFE8CA"/>
</linearGradient>
<linearGradient id="paint9_linear" x1="3598.61" y1="1266.01" x2="4308.82" y2="1266.01" gradientUnits="userSpaceOnUse">
<stop stop-color="#E4C5D5"/>
<stop offset="0.42" stop-color="#E9D3CF"/>
<stop offset="1" stop-color="#EFE8CA"/>
</linearGradient>
<linearGradient id="paint10_linear" x1="3083.2" y1="419.656" x2="3085.4" y2="490.04" gradientUnits="userSpaceOnUse">
<stop stop-color="#010101" stop-opacity="0"/>
<stop offset="0.95" stop-color="#010101"/>
</linearGradient>
<linearGradient id="paint11_linear" x1="10983.8" y1="3689.79" x2="11660.1" y2="9974.65" gradientUnits="userSpaceOnUse">
<stop stop-color="#010101" stop-opacity="0"/>
<stop offset="0.95" stop-color="#010101"/>
</linearGradient>
<linearGradient id="paint12_linear" x1="10677.9" y1="3695.08" x2="11372.8" y2="9924.03" gradientUnits="userSpaceOnUse">
<stop stop-color="#010101" stop-opacity="0"/>
<stop offset="0.95" stop-color="#010101"/>
</linearGradient>
<linearGradient id="paint13_linear" x1="4571.01" y1="3844.72" x2="6121.68" y2="4491.2" gradientUnits="userSpaceOnUse">
<stop stop-color="#010101" stop-opacity="0"/>
<stop offset="0.95" stop-color="#010101"/>
</linearGradient>
<linearGradient id="paint14_linear" x1="11603.8" y1="13917" x2="7273.77" y2="19563.6" gradientUnits="userSpaceOnUse">
<stop stop-color="#010101" stop-opacity="0"/>
<stop offset="0.95" stop-color="#010101"/>
</linearGradient>
<linearGradient id="paint15_linear" x1="8627.1" y1="16391.6" x2="4601.5" y2="15229.9" gradientUnits="userSpaceOnUse">
<stop stop-color="#010101" stop-opacity="0"/>
<stop offset="0.95" stop-color="#010101"/>
</linearGradient>
<linearGradient id="paint16_linear" x1="19459.8" y1="369.242" x2="19459.9" y2="405.568" gradientUnits="userSpaceOnUse">
<stop stop-color="#010101" stop-opacity="0"/>
<stop offset="0.95" stop-color="#010101"/>
</linearGradient>
<linearGradient id="paint17_linear" x1="5242.75" y1="535.246" x2="5243.02" y2="597.12" gradientUnits="userSpaceOnUse">
<stop stop-color="#010101" stop-opacity="0"/>
<stop offset="0.95" stop-color="#010101"/>
</linearGradient>
<linearGradient id="paint18_linear" x1="2808.94" y1="2469.25" x2="3660.81" y2="2469.25" gradientUnits="userSpaceOnUse">
<stop stop-color="#E4C5D5"/>
<stop offset="0.42" stop-color="#E9D3CF"/>
<stop offset="1" stop-color="#EFE8CA"/>
</linearGradient>
<linearGradient id="paint19_linear" x1="4707.36" y1="4797.42" x2="6370.18" y2="5293.18" gradientUnits="userSpaceOnUse">
<stop stop-color="#010101" stop-opacity="0"/>
<stop offset="0.95" stop-color="#010101"/>
</linearGradient>
<linearGradient id="paint20_linear" x1="273.336" y1="1922.9" x2="866.488" y2="2064.34" gradientUnits="userSpaceOnUse">
<stop stop-color="#010101" stop-opacity="0"/>
<stop offset="0.95" stop-color="#010101"/>
</linearGradient>
<linearGradient id="paint21_linear" x1="413.235" y1="1891.42" x2="1246.28" y2="2101.21" gradientUnits="userSpaceOnUse">
<stop stop-color="#010101" stop-opacity="0"/>
<stop offset="0.95" stop-color="#010101"/>
</linearGradient>
<linearGradient id="paint22_linear" x1="560.004" y1="1876.83" x2="2064.6" y2="2067.95" gradientUnits="userSpaceOnUse">
<stop stop-color="#010101" stop-opacity="0"/>
<stop offset="0.95" stop-color="#010101"/>
</linearGradient>
<linearGradient id="paint23_linear" x1="96.3616" y1="26.7223" x2="181.572" y2="20.8458" gradientUnits="userSpaceOnUse">
<stop stop-color="#010101" stop-opacity="0"/>
<stop offset="0.36" stop-color="#010101" stop-opacity="0.36"/>
<stop offset="0.95" stop-color="#010101"/>
</linearGradient>
<linearGradient id="paint24_linear" x1="776.998" y1="1620.76" x2="1608.81" y2="1846.34" gradientUnits="userSpaceOnUse">
<stop stop-color="white" stop-opacity="0"/>
<stop offset="0.07" stop-color="white" stop-opacity="0.22"/>
<stop offset="0.16" stop-color="white" stop-opacity="0.45"/>
<stop offset="0.25" stop-color="white" stop-opacity="0.65"/>
<stop offset="0.33" stop-color="white" stop-opacity="0.8"/>
<stop offset="0.4" stop-color="white" stop-opacity="0.91"/>
<stop offset="0.46" stop-color="white" stop-opacity="0.98"/>
<stop offset="0.51" stop-color="white"/>
</linearGradient>
<linearGradient id="paint25_linear" x1="1004.65" y1="1786.14" x2="1647.21" y2="1903.57" gradientUnits="userSpaceOnUse">
<stop stop-color="white" stop-opacity="0"/>
<stop offset="0.07" stop-color="white" stop-opacity="0.22"/>
<stop offset="0.16" stop-color="white" stop-opacity="0.45"/>
<stop offset="0.25" stop-color="white" stop-opacity="0.65"/>
<stop offset="0.33" stop-color="white" stop-opacity="0.8"/>
<stop offset="0.4" stop-color="white" stop-opacity="0.91"/>
<stop offset="0.46" stop-color="white" stop-opacity="0.98"/>
<stop offset="0.51" stop-color="white"/>
</linearGradient>
<linearGradient id="paint26_linear" x1="814.534" y1="19778.9" x2="2769.76" y2="19650" gradientUnits="userSpaceOnUse">
<stop stop-color="#010101" stop-opacity="0"/>
<stop offset="0.95" stop-color="#010101"/>
</linearGradient>
<linearGradient id="paint27_linear" x1="573.059" y1="1443.27" x2="596.085" y2="1443.27" gradientUnits="userSpaceOnUse">
<stop stop-color="#010101" stop-opacity="0"/>
<stop offset="0.95" stop-color="#010101"/>
</linearGradient>
</defs>
</svg>
