<svg width="134" height="124" viewBox="0 0 134 124" fill="none" xmlns="http://www.w3.org/2000/svg">
<path opacity="0.24" d="M123.703 105.018C122.138 106.163 120.429 107.098 118.619 107.799C115.488 109.01 112.152 109.552 108.937 110.486C107.511 110.895 106.111 111.392 104.737 111.934C96.418 115.2 88.7833 120.379 80.0322 122.27C63.816 125.799 48.1435 117.775 32.6434 114.372C19.3629 111.464 8.56977 118.417 3.2077 97.3771C0.966877 88.6178 -1.80697 79.3429 1.58476 70.9379C4.97649 62.5328 9.7525 54.7703 12.9878 46.323C17.6073 34.2587 19.3178 20.3597 28.4084 11.1535C34.7039 4.77903 43.7017 1.7015 52.6146 0.609564C61.5275 -0.482375 70.5518 0.218264 79.5257 0.255279C90.3347 0.28965 101.849 -0.466512 111.197 4.95881C114.494 6.90217 117.335 9.52635 119.531 12.6551C121.726 15.7839 123.225 19.3448 123.926 23.0988C125.782 33.4603 121.375 44.2025 123.356 54.5455C125.193 64.1747 132.372 72.2334 133.775 81.9419C135.048 90.6827 130.821 99.8518 123.703 105.018Z" fill="#0098ED"/>
<path d="M106.095 18.152V103.318C106.095 104.389 105.884 105.451 105.474 106.441C105.063 107.431 104.461 108.331 103.701 109.089C102.942 109.847 102.04 110.449 101.048 110.859C100.055 111.27 98.991 111.482 97.9163 111.482H43.9668C42.892 111.482 41.8278 111.271 40.835 110.86C39.8423 110.449 38.9404 109.848 38.1809 109.09C37.4214 108.331 36.8192 107.431 36.4087 106.441C35.9982 105.451 35.7874 104.39 35.7885 103.318V18.152C35.7885 15.9894 36.6501 13.9155 38.1838 12.3863C39.7176 10.8572 41.7978 9.99811 43.9668 9.99811H97.9163C100.085 9.99951 102.164 10.859 103.698 12.3879C105.231 13.9167 106.093 15.9899 106.095 18.152Z" fill="#0098ED"/>
<path d="M49.0559 67.1174C47.433 71.0833 43.9086 73.7669 40.859 76.6038C39.2891 78.0632 38.0772 79.6919 36.677 81.273C36.4228 81.5463 36.1243 81.7751 35.7939 81.9498V65.7479C36.2278 64.373 36.5062 62.9541 36.624 61.5176C37.1544 63.2599 36.9157 65.3856 38.2628 66.623C39.13 67.432 40.4055 67.5748 41.5909 67.6277C44.0905 67.7291 46.5936 67.558 49.0559 67.1174Z" fill="url(#paint0_linear)"/>
<path d="M98.826 17.261H41.734V102.559H98.826V17.261Z" fill="url(#paint1_linear)"/>
<path d="M99.656 16.5868V101.639H49.7161C49.7161 101.639 42.7947 100.188 42.4288 88.5569C42.0628 76.9263 42.7947 16.5868 42.7947 16.5868H99.656Z" fill="white"/>
<path d="M96.5189 62.6042C96.8557 63.7702 96.8901 65.0657 97.5796 66.0625C98.521 67.4056 100.372 67.7625 102.016 67.6753C102.233 67.6731 102.447 67.6328 102.65 67.5563C102.877 67.4383 103.07 67.2656 103.212 67.054C104.223 65.7003 104.204 63.8125 103.705 62.1997C103.014 59.9907 101.551 58.1023 99.5818 56.8775C98.5051 56.2112 93.8431 54.26 93.3419 56.0843C92.9203 57.6548 96.0601 61.0179 96.5189 62.6042Z" fill="#F5C7C8"/>
<path d="M96.5189 62.6042C96.8557 63.7702 96.8901 65.0657 97.5796 66.0625C98.521 67.4056 100.372 67.7625 102.016 67.6753C102.233 67.6731 102.447 67.6328 102.65 67.5563C102.877 67.4383 103.07 67.2656 103.212 67.054C104.223 65.7003 104.204 63.8125 103.705 62.1997C103.014 59.9907 101.551 58.1023 99.5818 56.8775C98.5051 56.2112 93.8431 54.26 93.3419 56.0843C92.9203 57.6548 96.0601 61.0179 96.5189 62.6042Z" fill="url(#paint2_linear)"/>
<path d="M98.4095 110.803C98.2292 102.475 98.0197 93.9664 95.1584 86.1377C93.5328 81.688 91.0798 77.5503 89.7539 73.0027C88.709 69.4202 88.9583 65.6156 88.9901 61.8824C89.0061 59.9048 89.0193 57.8848 88.4041 56.005C87.8737 54.3631 86.858 52.8587 86.6379 51.1454C88.9557 52.8296 91.4113 54.7015 92.2519 57.4353C92.6603 58.7573 92.6444 60.1797 92.8645 61.5493C93.5752 65.9805 96.6726 69.5894 98.8789 73.4998C103.727 82.0978 104.331 92.3827 104.283 102.245C104.283 104.381 104.22 106.599 103.278 108.521C102.337 110.443 100.52 111.189 98.4095 110.803Z" fill="url(#paint3_linear)"/>
<path d="M47.8335 68.8227C43.7761 73.3412 37.4912 75.5541 33.8582 80.419C30.6123 84.7497 30.005 90.4315 28.3635 95.5898C26.5443 101.309 23.4045 106.501 20.2833 111.633C19.8722 112.307 19.4161 113.019 18.6762 113.312C18.0345 113.576 17.3132 113.447 16.6423 113.312C11.5852 112.254 6.04806 109.595 4.91307 104.563C4.18911 101.343 5.51504 98.0195 7.08229 95.1112C12.5213 84.9824 21.0947 76.5879 25.2582 65.8721C27.979 58.8737 29.3792 50.9392 36.0619 46.5027C36.0566 46.5475 36.0566 46.5928 36.0619 46.6376C35.733 49.4111 36.327 55.3969 35.8842 59.6563C35.8711 59.811 35.88 59.9667 35.9107 60.1189C36.099 60.9729 36.8388 62.049 37.1783 62.6968C38.2125 64.6268 41.0659 64.2012 43.145 63.4899C45.224 62.7787 48.0589 62.3055 49.1302 64.2276C49.9391 65.7108 48.9685 67.551 47.8335 68.8227Z" fill="#F5C7C8"/>
<path d="M53.9538 101.557C53.9197 101.583 53.8869 101.61 53.8557 101.639H49.7162C49.7162 101.639 42.7948 100.188 42.4288 88.5569C42.4288 88.5569 44.9189 96.383 53.4526 94.7093C53.4526 94.7093 48.9312 102.057 53.9538 101.557Z" fill="white"/>
<path d="M53.9538 101.557C53.9197 101.583 53.8869 101.61 53.8557 101.639H49.7162C49.7162 101.639 42.7948 100.188 42.4288 88.5569C42.4288 88.5569 44.9189 96.383 53.4526 94.7093C53.4526 94.7093 48.9312 102.057 53.9538 101.557Z" fill="url(#paint4_linear)"/>
<path d="M92.5463 34.5364H51.8614C51.4455 34.5364 51.1083 34.8726 51.1083 35.2873C51.1083 35.7019 51.4455 36.0381 51.8614 36.0381H92.5463C92.9622 36.0381 93.2994 35.7019 93.2994 35.2873C93.2994 34.8726 92.9622 34.5364 92.5463 34.5364Z" fill="url(#paint5_linear)"/>
<path d="M92.5463 39.0442H51.8614C51.4455 39.0442 51.1083 39.3804 51.1083 39.7951C51.1083 40.2098 51.4455 40.5459 51.8614 40.5459H92.5463C92.9622 40.5459 93.2994 40.2098 93.2994 39.7951C93.2994 39.3804 92.9622 39.0442 92.5463 39.0442Z" fill="url(#paint6_linear)"/>
<path d="M92.5463 43.5494H51.8614C51.4455 43.5494 51.1083 43.8856 51.1083 44.3003C51.1083 44.715 51.4455 45.0512 51.8614 45.0512H92.5463C92.9622 45.0512 93.2994 44.715 93.2994 44.3003C93.2994 43.8856 92.9622 43.5494 92.5463 43.5494Z" fill="url(#paint7_linear)"/>
<path d="M92.5463 48.0573H51.8614C51.4455 48.0573 51.1083 48.3935 51.1083 48.8082C51.1083 49.2229 51.4455 49.5591 51.8614 49.5591H92.5463C92.9622 49.5591 93.2994 49.2229 93.2994 48.8082C93.2994 48.3935 92.9622 48.0573 92.5463 48.0573Z" fill="url(#paint8_linear)"/>
<path d="M92.5463 52.5653H51.8614C51.4455 52.5653 51.1083 52.9015 51.1083 53.3162C51.1083 53.7309 51.4455 54.0671 51.8614 54.0671H92.5463C92.9622 54.0671 93.2994 53.7309 93.2994 53.3162C93.2994 52.9015 92.9622 52.5653 92.5463 52.5653Z" fill="url(#paint9_linear)"/>
<path d="M83.5645 13.155V15.6085C83.5652 16.3187 83.4254 17.0221 83.1531 17.6784C82.8809 18.3347 82.4814 18.9311 81.9777 19.4333C81.474 19.9355 80.8759 20.3337 80.2176 20.6052C79.5593 20.8767 78.8538 21.016 78.1415 21.0153H63.6305C62.9177 21.016 62.2119 20.8767 61.5531 20.6053C60.8944 20.334 60.2958 19.9358 59.7914 19.4337C59.2871 18.9316 58.8869 18.3354 58.6137 17.679C58.3406 17.0227 58.1998 16.3191 58.1995 15.6085V13.155C58.2009 11.72 58.7738 10.3444 59.7922 9.3305C60.8106 8.3166 62.1912 7.74744 63.6305 7.74814H78.1415C78.8537 7.74779 79.5591 7.88741 80.2172 8.159C80.8753 8.4306 81.4733 8.82885 81.9769 9.33098C82.4806 9.83312 82.88 10.4293 83.1524 11.0854C83.4248 11.7416 83.5649 12.4448 83.5645 13.155Z" fill="#0098ED"/>
<path d="M58.2393 13.0915V15.5477C58.2372 16.2589 58.3759 16.9636 58.6476 17.6212C58.9192 18.2789 59.3184 18.8766 59.8222 19.3802C60.326 19.8837 60.9246 20.2832 61.5835 20.5556C62.2425 20.828 62.949 20.968 63.6623 20.9677H64.7523C64.0389 20.968 63.3324 20.828 62.6735 20.5556C62.0145 20.2832 61.4159 19.8837 60.9121 19.3802C60.4083 18.8766 60.0091 18.2789 59.7375 17.6212C59.4658 16.9636 59.3271 16.2589 59.3292 15.5477V13.0915C59.3288 12.3813 59.4689 11.6781 59.7413 11.0219C60.0137 10.3658 60.4131 9.76962 60.9168 9.26748C61.4204 8.76534 62.0184 8.36709 62.6765 8.09549C63.3346 7.8239 64.04 7.68428 64.7523 7.68463H63.6623C62.9501 7.68428 62.2447 7.8239 61.5866 8.09549C60.9285 8.36709 60.3305 8.76534 59.8269 9.26748C59.3232 9.76962 58.9238 10.3658 58.6514 11.0219C58.379 11.6781 58.2389 12.3813 58.2393 13.0915Z" fill="url(#paint10_linear)"/>
<path d="M83.5644 13.155V15.6085C83.5651 16.3187 83.4253 17.0221 83.153 17.6784C82.8808 18.3347 82.4813 18.9311 81.9776 19.4333C81.4739 19.9355 80.8758 20.3337 80.2175 20.6052C79.5592 20.8767 78.8537 21.016 78.1414 21.0153H64.7176C64.0049 21.016 63.299 20.8767 62.6403 20.6053C61.9816 20.334 61.3829 19.9358 60.8786 19.4337C60.3742 18.9316 59.9741 18.3354 59.7009 17.679C59.4277 17.0227 59.287 16.3191 59.2866 15.6085V13.155C59.288 11.72 59.8609 10.3444 60.8794 9.3305C61.8978 8.3166 63.2784 7.74744 64.7176 7.74814H78.1414C78.8536 7.74779 79.559 7.88741 80.2171 8.159C80.8752 8.4306 81.4732 8.82885 81.9768 9.33098C82.4805 9.83312 82.8799 10.4293 83.1523 11.0854C83.4247 11.7416 83.5648 12.4448 83.5644 13.155Z" fill="url(#paint11_linear)"/>
<path d="M35.8733 59.6562C35.8602 59.8109 35.8691 59.9667 35.8998 60.1189C35.3907 59.7804 34.8126 58.6779 34.3087 57.3533C33.9985 56.5416 33.2135 52.6207 33.2135 51.7509C33.2135 49.7494 34.5951 48.0758 36.0483 46.6375C35.7222 49.411 36.3109 55.3968 35.8733 59.6562Z" fill="url(#paint12_linear)"/>
<path d="M123.703 105.018C122.138 106.163 120.429 107.098 118.619 107.799C115.488 109.01 112.152 109.552 108.937 110.486C107.511 110.895 106.111 111.392 104.737 111.934C103.087 99.4049 99.8496 86.9468 93.676 75.9772C92.0717 73.1138 90.8491 70.729 89.7964 67.6171C88.7436 64.5052 89.266 56.1002 90.2949 55.9415C92.0451 55.656 93.1775 57.6918 93.7423 59.3654C94.689 62.0939 95.5456 64.5924 98.1126 66.2396C99.2105 66.9508 100.727 67.3871 101.77 66.5939C102.286 66.1503 102.63 65.5404 102.743 64.87C103.207 62.7258 102.26 60.4415 100.682 58.9106C99.1044 57.3798 96.9882 56.5311 94.8481 56.0579C93.6177 55.7935 92.2864 55.6137 91.3503 54.7755C90.6025 54.1013 90.2286 52.901 90.7802 52.0655C91.2708 51.3173 94.1878 53.0173 95.063 52.8904C96.9962 52.626 97.0943 52.2427 99.0407 52.2612C100.987 52.2797 102.992 52.4568 104.803 53.2024C106.66 53.9956 108.237 55.3361 109.709 56.7321C111.992 58.9027 114.042 59.561 116.023 62.0199C117.272 63.5772 118.476 65.2111 119.145 67.0989C120.341 70.4778 119.654 74.1952 119.306 77.7697C118.438 86.8652 119.863 96.0329 123.454 104.439C123.523 104.627 123.624 104.822 123.703 105.018Z" fill="#F5C7C8"/>
<path d="M103.239 71.6517C104.83 74.3141 106.824 76.7042 108.808 79.0811C109.365 79.7474 110.269 80.4771 110.995 79.9985C111.55 79.631 111.526 78.8193 111.388 78.1716C110.797 75.4113 109.266 72.9208 107.381 70.8083C105.496 68.6958 103.273 66.927 101.059 65.1661C101.136 65.2269 100.277 66.4167 100.637 67.0539C101.247 68.1062 102.6 70.5782 103.239 71.6517Z" fill="url(#paint13_linear)"/>
<path d="M86.9589 52.1871C86.9589 52.1871 102.592 68.902 105.787 72.2201C108.983 75.5382 111.621 77.9786 111.621 77.9786C111.621 77.9786 114.761 78.2906 114.886 77.2277C115.01 76.1649 91.0905 53.0015 88.7038 51.8751L86.3171 50.7488L86.9589 52.1871Z" fill="#0098ED"/>
<path d="M114.899 77.2277C114.838 77.7565 114.026 77.9468 113.231 77.9997C112.7 78.0306 112.169 78.0218 111.64 77.9733C111.64 77.9733 109.001 75.5382 105.806 72.2201C102.61 68.902 86.9773 52.1845 86.9773 52.1845L86.3514 50.7435L88.7381 51.8751C91.1036 53.0041 115.037 76.1595 114.899 77.2277Z" fill="url(#paint14_linear)"/>
<path d="M113.517 77.849L113.231 77.9997C112.7 78.0306 112.169 78.0218 111.64 77.9733C111.64 77.9733 109.001 75.5382 105.806 72.2201C102.61 68.902 86.9773 52.1845 86.9773 52.1845L86.3514 50.7435L113.517 77.849Z" fill="#0098ED"/>
<path d="M109.789 75.2156C109.606 75.5673 109.335 76.0326 108.956 75.9163C108.857 75.8803 108.766 75.8235 108.691 75.7497L102.775 70.6734C102.661 71.5856 103.488 72.3047 104.204 72.8837C105.521 73.9401 106.739 75.1125 107.845 76.3869C108.155 76.7438 108.481 77.1272 108.935 77.2753C109.388 77.4233 109.996 77.2065 110.067 76.7465C110.069 76.6492 110.09 76.5531 110.128 76.4636C110.181 76.3918 110.254 76.3367 110.338 76.3049L111.298 75.837C111.671 75.6803 112.014 75.4593 112.311 75.1839C112.457 75.0446 112.565 74.8698 112.623 74.6766C112.682 74.4833 112.689 74.2783 112.645 74.0814C112.183 72.5559 110.11 74.5917 109.789 75.2156Z" fill="white"/>
<path d="M113.228 78.3408C113.668 78.7533 114.188 79.1499 114.793 79.1763C114.901 79.1881 115.011 79.1749 115.113 79.1377C115.216 79.1006 115.309 79.0405 115.384 78.9622C115.444 78.8739 115.48 78.7718 115.488 78.6657C115.496 78.5596 115.477 78.4531 115.432 78.3567C115.339 78.1639 115.213 77.9893 115.058 77.8411L114.445 77.1749C114.246 76.9077 113.968 76.7098 113.65 76.6091C113.292 76.5456 112.467 76.8179 112.393 77.2357C112.319 77.6534 112.99 78.1002 113.228 78.3408Z" fill="white"/>
<defs>
<linearGradient id="paint0_linear" x1="35.7939" y1="71.7363" x2="49.0559" y2="71.7363" gradientUnits="userSpaceOnUse">
<stop stop-color="#010101" stop-opacity="0"/>
<stop offset="0.95" stop-color="#010101"/>
</linearGradient>
<linearGradient id="paint1_linear" x1="48.4671" y1="135.904" x2="93.9218" y2="-23.4139" gradientUnits="userSpaceOnUse">
<stop stop-color="#010101" stop-opacity="0"/>
<stop offset="0.47" stop-color="#010101" stop-opacity="0.47"/>
<stop offset="0.95" stop-color="#010101"/>
</linearGradient>
<linearGradient id="paint2_linear" x1="4179.99" y1="3122.22" x2="5743.03" y2="2057.11" gradientUnits="userSpaceOnUse">
<stop stop-color="#010101" stop-opacity="0"/>
<stop offset="0.47" stop-color="#010101" stop-opacity="0.47"/>
<stop offset="0.95" stop-color="#010101"/>
</linearGradient>
<linearGradient id="paint3_linear" x1="6362.43" y1="19366.7" x2="11735.2" y2="18507.9" gradientUnits="userSpaceOnUse">
<stop stop-color="#010101" stop-opacity="0"/>
<stop offset="0.47" stop-color="#010101" stop-opacity="0.47"/>
<stop offset="0.95" stop-color="#010101"/>
</linearGradient>
<linearGradient id="paint4_linear" x1="2576.55" y1="4605.68" x2="1289.1" y2="6006.76" gradientUnits="userSpaceOnUse">
<stop stop-color="#010101" stop-opacity="0"/>
<stop offset="0.95" stop-color="#010101"/>
</linearGradient>
<linearGradient id="paint5_linear" x1="8178.81" y1="234.959" x2="14891.4" y2="234.959" gradientUnits="userSpaceOnUse">
<stop stop-color="#010101" stop-opacity="0"/>
<stop offset="0.95" stop-color="#010101"/>
</linearGradient>
<linearGradient id="paint6_linear" x1="8178.81" y1="265.073" x2="14891.4" y2="265.073" gradientUnits="userSpaceOnUse">
<stop stop-color="#010101" stop-opacity="0"/>
<stop offset="0.95" stop-color="#010101"/>
</linearGradient>
<linearGradient id="paint7_linear" x1="8178.81" y1="295.182" x2="14891.4" y2="295.182" gradientUnits="userSpaceOnUse">
<stop stop-color="#010101" stop-opacity="0"/>
<stop offset="0.95" stop-color="#010101"/>
</linearGradient>
<linearGradient id="paint8_linear" x1="8178.81" y1="325.281" x2="14891.4" y2="325.281" gradientUnits="userSpaceOnUse">
<stop stop-color="#010101" stop-opacity="0"/>
<stop offset="0.95" stop-color="#010101"/>
</linearGradient>
<linearGradient id="paint9_linear" x1="8178.81" y1="355.393" x2="14891.4" y2="355.393" gradientUnits="userSpaceOnUse">
<stop stop-color="#010101" stop-opacity="0"/>
<stop offset="0.95" stop-color="#010101"/>
</linearGradient>
<linearGradient id="paint10_linear" x1="1484.91" y1="763.624" x2="2139.63" y2="792.542" gradientUnits="userSpaceOnUse">
<stop stop-color="#010101" stop-opacity="0"/>
<stop offset="0.47" stop-color="#010101" stop-opacity="0.47"/>
<stop offset="0.95" stop-color="#010101"/>
</linearGradient>
<linearGradient id="paint11_linear" x1="72.2887" y1="0.628061" x2="70.7967" y2="24.5482" gradientUnits="userSpaceOnUse">
<stop stop-color="white" stop-opacity="0"/>
<stop offset="0.95" stop-color="white"/>
</linearGradient>
<linearGradient id="paint12_linear" x1="403.954" y1="2704.76" x2="1178.15" y2="2775.97" gradientUnits="userSpaceOnUse">
<stop stop-color="#010101" stop-opacity="0"/>
<stop offset="0.95" stop-color="#010101"/>
</linearGradient>
<linearGradient id="paint13_linear" x1="4861.66" y1="4241.43" x2="3530.56" y2="4417.77" gradientUnits="userSpaceOnUse">
<stop stop-color="#010101" stop-opacity="0"/>
<stop offset="0.47" stop-color="#010101" stop-opacity="0.47"/>
<stop offset="0.95" stop-color="#010101"/>
</linearGradient>
<linearGradient id="paint14_linear" x1="11778.7" y1="6563.55" x2="11283.3" y2="7153.56" gradientUnits="userSpaceOnUse">
<stop stop-color="white" stop-opacity="0"/>
<stop offset="0.95" stop-color="white"/>
</linearGradient>
</defs>
</svg>
